solid 
 facet normal  4.928627e-17 -6.123234e-17 -1.000000e+00
   outer loop
     vertex -2.647204e-01  5.317545e-18  4.280124e-18
     vertex -3.515625e-01 -5.468750e-02  3.348644e-18
     vertex -3.515625e-01  0.000000e+00  0.000000e+00
   endloop
 endfacet
 facet normal  4.928627e-17 -6.123234e-17 -1.000000e+00
   outer loop
     vertex -2.647204e-01  5.317545e-18  4.280124e-18
     vertex -2.647204e-01 -5.468750e-02  7.628767e-18
     vertex -3.515625e-01 -5.468750e-02  3.348644e-18
   endloop
 endfacet
 facet normal  8.890484e-01 -1.827094e-16 -4.578133e-01
   outer loop
     vertex -2.249793e-01  1.247659e-17  7.717499e-02
     vertex -2.647204e-01 -5.468750e-02  7.628767e-18
     vertex -2.647204e-01  5.317545e-18  4.280124e-18
   endloop
 endfacet
 facet normal  8.890484e-01  0.000000e+00 -4.578133e-01
   outer loop
     vertex -2.249793e-01  1.247659e-17  7.717499e-02
     vertex -2.249793e-01 -5.468750e-02  7.717499e-02
     vertex -2.647204e-01 -5.468750e-02  7.628767e-18
   endloop
 endfacet
 facet normal  7.049341e-01  0.000000e+00 -7.092728e-01
   outer loop
     vertex -1.634100e-01  1.999360e-17  1.383677e-01
     vertex -1.634100e-01 -5.468750e-02  1.383677e-01
     vertex -2.249793e-01 -5.468750e-02  7.717499e-02
   endloop
 endfacet
 facet normal  7.049341e-01  0.000000e+00 -7.092728e-01
   outer loop
     vertex -1.634100e-01  1.999360e-17  1.383677e-01
     vertex -2.249793e-01 -5.468750e-02  7.717499e-02
     vertex -2.249793e-01  1.247659e-17  7.717499e-02
   endloop
 endfacet
 facet normal  4.523496e-01  0.000000e+00 -8.918407e-01
   outer loop
     vertex -8.599259e-02  2.713844e-17  1.776345e-01
     vertex -8.599259e-02 -5.468750e-02  1.776345e-01
     vertex -1.634100e-01 -5.468750e-02  1.383677e-01
   endloop
 endfacet
 facet normal  4.523496e-01  0.000000e+00 -8.918407e-01
   outer loop
     vertex -8.599259e-02  2.713844e-17  1.776345e-01
     vertex -1.634100e-01 -5.468750e-02  1.383677e-01
     vertex -1.634100e-01  1.999360e-17  1.383677e-01
   endloop
 endfacet
 facet normal  1.558284e-01  9.577022e-18 -9.877841e-01
   outer loop
     vertex -2.467105e-04  3.321715e-17  1.911614e-01
     vertex -2.467105e-04 -5.468750e-02  1.911614e-01
     vertex -8.599259e-02 -5.468750e-02  1.776345e-01
   endloop
 endfacet
 facet normal  1.558284e-01  0.000000e+00 -9.877841e-01
   outer loop
     vertex -2.467105e-04  3.321715e-17  1.911614e-01
     vertex -8.599259e-02 -5.468750e-02  1.776345e-01
     vertex -8.599259e-02  2.713844e-17  1.776345e-01
   endloop
 endfacet
 facet normal -1.558284e-01 -0.000000e+00 -9.877841e-01
   outer loop
     vertex  8.549917e-02  3.763928e-17  1.776345e-01
     vertex  8.549917e-02 -5.468750e-02  1.776345e-01
     vertex -2.467105e-04 -5.468750e-02  1.911614e-01
   endloop
 endfacet
 facet normal -1.558284e-01  0.000000e+00 -9.877841e-01
   outer loop
     vertex  8.549917e-02  3.763928e-17  1.776345e-01
     vertex -2.467105e-04 -5.468750e-02  1.911614e-01
     vertex -2.467105e-04  3.321715e-17  1.911614e-01
   endloop
 endfacet
 facet normal -4.523496e-01 -0.000000e+00 -8.918407e-01
   outer loop
     vertex  1.629166e-01  3.997533e-17  1.383677e-01
     vertex  1.629166e-01 -5.468750e-02  1.383677e-01
     vertex  8.549917e-02 -5.468750e-02  1.776345e-01
   endloop
 endfacet
 facet normal -4.523496e-01  0.000000e+00 -8.918407e-01
   outer loop
     vertex  1.629166e-01  3.997533e-17  1.383677e-01
     vertex  8.549917e-02 -5.468750e-02  1.776345e-01
     vertex  8.549917e-02  3.763928e-17  1.776345e-01
   endloop
 endfacet
 facet normal -7.049341e-01 -0.000000e+00 -7.092728e-01
   outer loop
     vertex  2.244859e-01  3.999840e-17  7.717499e-02
     vertex  2.244859e-01 -5.468750e-02  7.717499e-02
     vertex  1.629166e-01 -5.468750e-02  1.383677e-01
   endloop
 endfacet
 facet normal -7.049341e-01  0.000000e+00 -7.092728e-01
   outer loop
     vertex  2.244859e-01  3.999840e-17  7.717499e-02
     vertex  1.629166e-01 -5.468750e-02  1.383677e-01
     vertex  1.629166e-01  3.997533e-17  1.383677e-01
   endloop
 endfacet
 facet normal -8.890484e-01 -2.803298e-17 -4.578133e-01
   outer loop
     vertex  2.642270e-01  3.770623e-17 -4.660869e-17
     vertex  2.642270e-01 -5.468750e-02 -4.326005e-17
     vertex  2.244859e-01 -5.468750e-02  7.717499e-02
   endloop
 endfacet
 facet normal -8.890484e-01  0.000000e+00 -4.578133e-01
   outer loop
     vertex  2.642270e-01  3.770623e-17 -4.660869e-17
     vertex  2.244859e-01 -5.468750e-02  7.717499e-02
     vertex  2.244859e-01  3.999840e-17  7.717499e-02
   endloop
 endfacet
 facet normal  4.128086e-17 -6.123234e-17 -1.000000e+00
   outer loop
     vertex  3.510691e-01  4.302378e-17 -4.302378e-17
     vertex  2.642270e-01 -5.468750e-02 -4.326005e-17
     vertex  2.642270e-01  3.770623e-17 -4.660869e-17
   endloop
 endfacet
 facet normal  4.128086e-17 -6.123234e-17 -1.000000e+00
   outer loop
     vertex  3.510691e-01  4.302378e-17 -4.302378e-17
     vertex  3.510691e-01 -5.468750e-02 -3.967513e-17
     vertex  2.642270e-01 -5.468750e-02 -4.326005e-17
   endloop
 endfacet
 facet normal  9.624497e-01  0.000000e+00  2.714602e-01
   outer loop
     vertex  1.773849e-01  7.009492e-17  6.157895e-01
     vertex  3.510691e-01 -5.468750e-02 -3.967513e-17
     vertex  3.510691e-01  4.302378e-17 -4.302378e-17
   endloop
 endfacet
 facet normal  9.624497e-01  0.000000e+00  2.714602e-01
   outer loop
     vertex  1.773849e-01  7.009492e-17  6.157895e-01
     vertex  1.773849e-01 -5.468750e-02  6.157895e-01
     vertex  3.510691e-01 -5.468750e-02 -3.967513e-17
   endloop
 endfacet
 facet normal  8.790122e-01  0.000000e+00  4.767992e-01
   outer loop
     vertex  1.397990e-01  7.203636e-17  6.850816e-01
     vertex  1.773849e-01 -5.468750e-02  6.157895e-01
     vertex  1.773849e-01  7.009492e-17  6.157895e-01
   endloop
 endfacet
 facet normal  8.790122e-01  0.000000e+00  4.767992e-01
   outer loop
     vertex  1.397990e-01  7.203636e-17  6.850816e-01
     vertex  1.397990e-01 -5.468750e-02  6.850816e-01
     vertex  1.773849e-01 -5.468750e-02  6.157895e-01
   endloop
 endfacet
 facet normal  6.006165e-01  0.000000e+00  7.995373e-01
   outer loop
     vertex  7.677192e-02  7.107619e-17  7.324278e-01
     vertex  7.677192e-02 -5.468750e-02  7.324278e-01
     vertex  1.397990e-01 -5.468750e-02  6.850816e-01
   endloop
 endfacet
 facet normal  6.006165e-01  0.000000e+00  7.995373e-01
   outer loop
     vertex  7.677192e-02  7.107619e-17  7.324278e-01
     vertex  1.397990e-01 -5.468750e-02  6.850816e-01
     vertex  1.397990e-01  7.203636e-17  6.850816e-01
   endloop
 endfacet
 facet normal  2.131103e-01  1.309750e-17  9.770281e-01
   outer loop
     vertex -2.467105e-04  6.738882e-17  7.492272e-01
     vertex -2.467105e-04 -5.468750e-02  7.492272e-01
     vertex  7.677192e-02 -5.468750e-02  7.324278e-01
   endloop
 endfacet
 facet normal  2.131103e-01  0.000000e+00  9.770281e-01
   outer loop
     vertex -2.467105e-04  6.738882e-17  7.492272e-01
     vertex  7.677192e-02 -5.468750e-02  7.324278e-01
     vertex  7.677192e-02  7.107619e-17  7.324278e-01
   endloop
 endfacet
 facet normal -2.131103e-01  0.000000e+00  9.770281e-01
   outer loop
     vertex -7.726534e-02  6.164413e-17  7.324278e-01
     vertex -7.726534e-02 -5.468750e-02  7.324278e-01
     vertex -2.467105e-04 -5.468750e-02  7.492272e-01
   endloop
 endfacet
 facet normal -2.131103e-01  0.000000e+00  9.770281e-01
   outer loop
     vertex -7.726534e-02  6.164413e-17  7.324278e-01
     vertex -2.467105e-04 -5.468750e-02  7.492272e-01
     vertex -2.467105e-04  6.738882e-17  7.492272e-01
   endloop
 endfacet
 facet normal -6.006165e-01  0.000000e+00  7.995373e-01
   outer loop
     vertex -1.402925e-01  5.488571e-17  6.850816e-01
     vertex -1.402925e-01 -5.468750e-02  6.850816e-01
     vertex -7.726534e-02 -5.468750e-02  7.324278e-01
   endloop
 endfacet
 facet normal -6.006165e-01  0.000000e+00  7.995373e-01
   outer loop
     vertex -1.402925e-01  5.488571e-17  6.850816e-01
     vertex -7.726534e-02 -5.468750e-02  7.324278e-01
     vertex -7.726534e-02  6.164413e-17  7.324278e-01
   endloop
 endfacet
 facet normal -8.790122e-01  0.000000e+00  4.767992e-01
   outer loop
     vertex -1.778783e-01  4.834132e-17  6.157895e-01
     vertex -1.778783e-01 -5.468750e-02  6.157895e-01
     vertex -1.402925e-01 -5.468750e-02  6.850816e-01
   endloop
 endfacet
 facet normal -8.790122e-01  0.000000e+00  4.767992e-01
   outer loop
     vertex -1.778783e-01  4.834132e-17  6.157895e-01
     vertex -1.402925e-01 -5.468750e-02  6.850816e-01
     vertex -1.402925e-01  5.488571e-17  6.850816e-01
   endloop
 endfacet
 facet normal -9.624497e-01  0.000000e+00  2.714602e-01
   outer loop
     vertex -3.515625e-01  0.000000e+00  0.000000e+00
     vertex -1.778783e-01 -5.468750e-02  6.157895e-01
     vertex -1.778783e-01  4.834132e-17  6.157895e-01
   endloop
 endfacet
 facet normal -9.624497e-01  1.662214e-17  2.714602e-01
   outer loop
     vertex -3.515625e-01  0.000000e+00  0.000000e+00
     vertex -3.515625e-01 -5.468750e-02  3.348644e-18
     vertex -1.778783e-01 -5.468750e-02  6.157895e-01
   endloop
 endfacet
 facet normal -2.393157e-01  0.000000e+00  9.709418e-01
   outer loop
     vertex  8.441574e-02  5.208481e-17  4.146313e-01
     vertex  3.700658e-03  4.592425e-17  3.947368e-01
     vertex  3.700658e-03 -5.468750e-02  3.947368e-01
   endloop
 endfacet
 facet normal -2.393157e-01  0.000000e+00  9.709418e-01
   outer loop
     vertex  8.441574e-02  5.208481e-17  4.146313e-01
     vertex  3.700658e-03 -5.468750e-02  3.947368e-01
     vertex  8.441574e-02 -5.468750e-02  4.146313e-01
   endloop
 endfacet
 facet normal -6.631227e-01  0.000000e+00  7.485107e-01
   outer loop
     vertex  1.466400e-01  5.927043e-17  4.697572e-01
     vertex  8.441574e-02 -5.468750e-02  4.146313e-01
     vertex  1.466400e-01 -5.468750e-02  4.697572e-01
   endloop
 endfacet
 facet normal -6.631227e-01  0.000000e+00  7.485107e-01
   outer loop
     vertex  1.466400e-01  5.927043e-17  4.697572e-01
     vertex  8.441574e-02  5.208481e-17  4.146313e-01
     vertex  8.441574e-02 -5.468750e-02  4.146313e-01
   endloop
 endfacet
 facet normal -9.350162e-01  0.000000e+00  3.546049e-01
   outer loop
     vertex  1.761185e-01  6.583498e-17  5.474857e-01
     vertex  1.466400e-01 -5.468750e-02  4.697572e-01
     vertex  1.761185e-01 -5.468750e-02  5.474857e-01
   endloop
 endfacet
 facet normal -9.350162e-01  0.000000e+00  3.546049e-01
   outer loop
     vertex  1.761185e-01  6.583498e-17  5.474857e-01
     vertex  1.466400e-01  5.927043e-17  4.697572e-01
     vertex  1.466400e-01 -5.468750e-02  4.697572e-01
   endloop
 endfacet
 facet normal -9.927089e-01 -0.000000e+00 -1.205367e-01
   outer loop
     vertex  1.660982e-01  7.027458e-17  6.300103e-01
     vertex  1.761185e-01 -5.468750e-02  5.474857e-01
     vertex  1.660982e-01 -5.468750e-02  6.300103e-01
   endloop
 endfacet
 facet normal -9.927089e-01  0.000000e+00 -1.205367e-01
   outer loop
     vertex  1.660982e-01  7.027458e-17  6.300103e-01
     vertex  1.761185e-01  6.583498e-17  5.474857e-01
     vertex  1.761185e-01 -5.468750e-02  5.474857e-01
   endloop
 endfacet
 facet normal -8.229839e-01 -0.000000e+00 -5.680647e-01
   outer loop
     vertex  1.188746e-01  7.157219e-17  6.984256e-01
     vertex  1.660982e-01 -5.468750e-02  6.300103e-01
     vertex  1.188746e-01 -5.468750e-02  6.984256e-01
   endloop
 endfacet
 facet normal -8.229839e-01  0.000000e+00 -5.680647e-01
   outer loop
     vertex  1.188746e-01  7.157219e-17  6.984256e-01
     vertex  1.660982e-01  7.027458e-17  6.300103e-01
     vertex  1.660982e-01 -5.468750e-02  6.300103e-01
   endloop
 endfacet
 facet normal -4.647232e-01 -0.000000e+00 -8.854560e-01
   outer loop
     vertex  4.526601e-02  6.943054e-17  7.370583e-01
     vertex  1.188746e-01 -5.468750e-02  6.984256e-01
     vertex  4.526601e-02 -5.468750e-02  7.370583e-01
   endloop
 endfacet
 facet normal -4.647232e-01  0.000000e+00 -8.854560e-01
   outer loop
     vertex  4.526601e-02  6.943054e-17  7.370583e-01
     vertex  1.188746e-01  7.157219e-17  6.984256e-01
     vertex  1.188746e-01 -5.468750e-02  6.984256e-01
   endloop
 endfacet
 facet normal -1.335515e-15 -0.000000e+00 -1.000000e+00
   outer loop
     vertex -3.786469e-02  6.434026e-17  7.370583e-01
     vertex  4.526601e-02 -5.468750e-02  7.370583e-01
     vertex -3.786469e-02 -5.468750e-02  7.370583e-01
   endloop
 endfacet
 facet normal -1.335515e-15  0.000000e+00 -1.000000e+00
   outer loop
     vertex -3.786469e-02  6.434026e-17  7.370583e-01
     vertex  4.526601e-02  6.943054e-17  7.370583e-01
     vertex  4.526601e-02 -5.468750e-02  7.370583e-01
   endloop
 endfacet
 facet normal  4.647232e-01  0.000000e+00 -8.854560e-01
   outer loop
     vertex -1.114733e-01  5.746746e-17  6.984256e-01
     vertex -3.786469e-02 -5.468750e-02  7.370583e-01
     vertex -1.114733e-01 -5.468750e-02  6.984256e-01
   endloop
 endfacet
 facet normal  4.647232e-01  0.000000e+00 -8.854560e-01
   outer loop
     vertex -1.114733e-01  5.746746e-17  6.984256e-01
     vertex -3.786469e-02  6.434026e-17  7.370583e-01
     vertex -3.786469e-02 -5.468750e-02  7.370583e-01
   endloop
 endfacet
 facet normal  8.229839e-01  0.000000e+00 -5.680647e-01
   outer loop
     vertex -1.586969e-01  5.038662e-17  6.300103e-01
     vertex -1.114733e-01 -5.468750e-02  6.984256e-01
     vertex -1.586969e-01 -5.468750e-02  6.300103e-01
   endloop
 endfacet
 facet normal  8.229839e-01  0.000000e+00 -5.680647e-01
   outer loop
     vertex -1.586969e-01  5.038662e-17  6.300103e-01
     vertex -1.114733e-01  5.746746e-17  6.984256e-01
     vertex -1.114733e-01 -5.468750e-02  6.984256e-01
   endloop
 endfacet
 facet normal  9.927089e-01  0.000000e+00 -1.205367e-01
   outer loop
     vertex -1.687172e-01  4.471988e-17  5.474857e-01
     vertex -1.586969e-01 -5.468750e-02  6.300103e-01
     vertex -1.687172e-01 -5.468750e-02  5.474857e-01
   endloop
 endfacet
 facet normal  9.927089e-01  0.000000e+00 -1.205367e-01
   outer loop
     vertex -1.687172e-01  4.471988e-17  5.474857e-01
     vertex -1.586969e-01  5.038662e-17  6.300103e-01
     vertex -1.586969e-01 -5.468750e-02  6.300103e-01
   endloop
 endfacet
 facet normal  9.350162e-01  0.000000e+00  3.546049e-01
   outer loop
     vertex -1.392386e-01  4.176542e-17  4.697572e-01
     vertex -1.687172e-01 -5.468750e-02  5.474857e-01
     vertex -1.392386e-01 -5.468750e-02  4.697572e-01
   endloop
 endfacet
 facet normal  6.631227e-01  0.000000e+00  7.485107e-01
   outer loop
     vertex -1.392386e-01  4.176542e-17  4.697572e-01
     vertex -1.392386e-01 -5.468750e-02  4.697572e-01
     vertex -7.701442e-02 -5.468750e-02  4.146313e-01
   endloop
 endfacet
 facet normal  9.350162e-01  0.000000e+00  3.546049e-01
   outer loop
     vertex -1.392386e-01  4.176542e-17  4.697572e-01
     vertex -1.687172e-01  4.471988e-17  5.474857e-01
     vertex -1.687172e-01 -5.468750e-02  5.474857e-01
   endloop
 endfacet
 facet normal  6.631227e-01  0.000000e+00  7.485107e-01
   outer loop
     vertex -7.701442e-02  4.220007e-17  4.146313e-01
     vertex -1.392386e-01  4.176542e-17  4.697572e-01
     vertex -7.701442e-02 -5.468750e-02  4.146313e-01
   endloop
 endfacet
 facet normal  2.393157e-01  1.518250e-17  9.709418e-01
   outer loop
     vertex  3.700658e-03  4.592425e-17  3.947368e-01
     vertex -7.701442e-02 -5.468750e-02  4.146313e-01
     vertex  3.700658e-03 -5.468750e-02  3.947368e-01
   endloop
 endfacet
 facet normal  2.393157e-01  0.000000e+00  9.709418e-01
   outer loop
     vertex  3.700658e-03  4.592425e-17  3.947368e-01
     vertex -7.701442e-02  4.220007e-17  4.146313e-01
     vertex -7.701442e-02 -5.468750e-02  4.146313e-01
   endloop
 endfacet
 facet normal -6.123234e-17  1.000000e+00 -6.123234e-17
   outer loop
     vertex -2.249793e-01  1.247659e-17  7.717499e-02
     vertex -2.647204e-01  5.317545e-18  4.280124e-18
     vertex -3.515625e-01  0.000000e+00  0.000000e+00
   endloop
 endfacet
 facet normal -6.123234e-17  1.000000e+00 -6.123234e-17
   outer loop
     vertex -1.392386e-01  4.176542e-17  4.697572e-01
     vertex -1.634100e-01  1.999360e-17  1.383677e-01
     vertex -2.249793e-01  1.247659e-17  7.717499e-02
   endloop
 endfacet
 facet normal -6.123234e-17  1.000000e+00 -6.123234e-17
   outer loop
     vertex -1.392386e-01  4.176542e-17  4.697572e-01
     vertex -2.249793e-01  1.247659e-17  7.717499e-02
     vertex -3.515625e-01  0.000000e+00  0.000000e+00
   endloop
 endfacet
 facet normal -6.123234e-17  1.000000e+00 -6.123234e-17
   outer loop
     vertex -7.701442e-02  4.220007e-17  4.146313e-01
     vertex -8.599259e-02  2.713844e-17  1.776345e-01
     vertex -1.634100e-01  1.999360e-17  1.383677e-01
   endloop
 endfacet
 facet normal -6.123234e-17  1.000000e+00 -6.123234e-17
   outer loop
     vertex -7.701442e-02  4.220007e-17  4.146313e-01
     vertex -1.634100e-01  1.999360e-17  1.383677e-01
     vertex -1.392386e-01  4.176542e-17  4.697572e-01
   endloop
 endfacet
 facet normal -6.123234e-17  1.000000e+00 -6.123234e-17
   outer loop
     vertex  3.510691e-01  4.302378e-17 -4.302378e-17
     vertex  2.642270e-01  3.770623e-17 -4.660869e-17
     vertex  2.244859e-01  3.999840e-17  7.717499e-02
   endloop
 endfacet
 facet normal -6.123234e-17  1.000000e+00 -6.123234e-17
   outer loop
     vertex -1.687172e-01  4.471988e-17  5.474857e-01
     vertex -1.392386e-01  4.176542e-17  4.697572e-01
     vertex -3.515625e-01  0.000000e+00  0.000000e+00
   endloop
 endfacet
 facet normal -6.123234e-17  1.000000e+00 -6.123234e-17
   outer loop
     vertex  3.700658e-03  4.592425e-17  3.947368e-01
     vertex -2.467105e-04  3.321715e-17  1.911614e-01
     vertex -8.599259e-02  2.713844e-17  1.776345e-01
   endloop
 endfacet
 facet normal -6.123234e-17  1.000000e+00 -6.123234e-17
   outer loop
     vertex  3.700658e-03  4.592425e-17  3.947368e-01
     vertex  8.549917e-02  3.763928e-17  1.776345e-01
     vertex -2.467105e-04  3.321715e-17  1.911614e-01
   endloop
 endfacet
 facet normal -6.123234e-17  1.000000e+00 -6.123234e-17
   outer loop
     vertex  3.700658e-03  4.592425e-17  3.947368e-01
     vertex -8.599259e-02  2.713844e-17  1.776345e-01
     vertex -7.701442e-02  4.220007e-17  4.146313e-01
   endloop
 endfacet
 facet normal -6.123234e-17  1.000000e+00 -6.123234e-17
   outer loop
     vertex -1.778783e-01  4.834132e-17  6.157895e-01
     vertex -1.687172e-01  4.471988e-17  5.474857e-01
     vertex -3.515625e-01  0.000000e+00  0.000000e+00
   endloop
 endfacet
 facet normal -6.123234e-17  1.000000e+00 -6.123234e-17
   outer loop
     vertex -1.586969e-01  5.038662e-17  6.300103e-01
     vertex -1.687172e-01  4.471988e-17  5.474857e-01
     vertex -1.778783e-01  4.834132e-17  6.157895e-01
   endloop
 endfacet
 facet normal -6.123234e-17  1.000000e+00 -6.123234e-17
   outer loop
     vertex  8.441574e-02  5.208481e-17  4.146313e-01
     vertex  1.629166e-01  3.997533e-17  1.383677e-01
     vertex  8.549917e-02  3.763928e-17  1.776345e-01
   endloop
 endfacet
 facet normal -6.123234e-17  1.000000e+00 -6.123234e-17
   outer loop
     vertex  8.441574e-02  5.208481e-17  4.146313e-01
     vertex  8.549917e-02  3.763928e-17  1.776345e-01
     vertex  3.700658e-03  4.592425e-17  3.947368e-01
   endloop
 endfacet
 facet normal -6.123234e-17  1.000000e+00 -6.123234e-17
   outer loop
     vertex -1.402925e-01  5.488571e-17  6.850816e-01
     vertex -1.586969e-01  5.038662e-17  6.300103e-01
     vertex -1.778783e-01  4.834132e-17  6.157895e-01
   endloop
 endfacet
 facet normal -6.123234e-17  1.000000e+00 -6.123234e-17
   outer loop
     vertex -1.114733e-01  5.746746e-17  6.984256e-01
     vertex -1.586969e-01  5.038662e-17  6.300103e-01
     vertex -1.402925e-01  5.488571e-17  6.850816e-01
   endloop
 endfacet
 facet normal -6.123234e-17  1.000000e+00 -6.123234e-17
   outer loop
     vertex  1.466400e-01  5.927043e-17  4.697572e-01
     vertex  2.244859e-01  3.999840e-17  7.717499e-02
     vertex  1.629166e-01  3.997533e-17  1.383677e-01
   endloop
 endfacet
 facet normal -6.123234e-17  1.000000e+00 -6.123234e-17
   outer loop
     vertex  1.466400e-01  5.927043e-17  4.697572e-01
     vertex  1.629166e-01  3.997533e-17  1.383677e-01
     vertex  8.441574e-02  5.208481e-17  4.146313e-01
   endloop
 endfacet
 facet normal -6.123234e-17  1.000000e+00 -6.123234e-17
   outer loop
     vertex  1.466400e-01  5.927043e-17  4.697572e-01
     vertex  3.510691e-01  4.302378e-17 -4.302378e-17
     vertex  2.244859e-01  3.999840e-17  7.717499e-02
   endloop
 endfacet
 facet normal -6.123234e-17  1.000000e+00 -6.123234e-17
   outer loop
     vertex -7.726534e-02  6.164413e-17  7.324278e-01
     vertex -1.114733e-01  5.746746e-17  6.984256e-01
     vertex -1.402925e-01  5.488571e-17  6.850816e-01
   endloop
 endfacet
 facet normal -6.123234e-17  1.000000e+00 -6.123234e-17
   outer loop
     vertex -3.786469e-02  6.434026e-17  7.370583e-01
     vertex -1.114733e-01  5.746746e-17  6.984256e-01
     vertex -7.726534e-02  6.164413e-17  7.324278e-01
   endloop
 endfacet
 facet normal -6.123234e-17  1.000000e+00 -6.123234e-17
   outer loop
     vertex  1.761185e-01  6.583498e-17  5.474857e-01
     vertex  3.510691e-01  4.302378e-17 -4.302378e-17
     vertex  1.466400e-01  5.927043e-17  4.697572e-01
   endloop
 endfacet
 facet normal -6.123234e-17  1.000000e+00 -6.123234e-17
   outer loop
     vertex -2.467105e-04  6.738882e-17  7.492272e-01
     vertex -3.786469e-02  6.434026e-17  7.370583e-01
     vertex -7.726534e-02  6.164413e-17  7.324278e-01
   endloop
 endfacet
 facet normal -6.123234e-17  1.000000e+00 -6.123234e-17
   outer loop
     vertex  4.526601e-02  6.943054e-17  7.370583e-01
     vertex -3.786469e-02  6.434026e-17  7.370583e-01
     vertex -2.467105e-04  6.738882e-17  7.492272e-01
   endloop
 endfacet
 facet normal -6.123234e-17  1.000000e+00 -6.123234e-17
   outer loop
     vertex  1.773849e-01  7.009492e-17  6.157895e-01
     vertex  3.510691e-01  4.302378e-17 -4.302378e-17
     vertex  1.761185e-01  6.583498e-17  5.474857e-01
   endloop
 endfacet
 facet normal -6.123234e-17  1.000000e+00 -6.123234e-17
   outer loop
     vertex  1.660982e-01  7.027458e-17  6.300103e-01
     vertex  1.773849e-01  7.009492e-17  6.157895e-01
     vertex  1.761185e-01  6.583498e-17  5.474857e-01
   endloop
 endfacet
 facet normal -6.123234e-17  1.000000e+00 -6.123234e-17
   outer loop
     vertex  7.677192e-02  7.107619e-17  7.324278e-01
     vertex  4.526601e-02  6.943054e-17  7.370583e-01
     vertex -2.467105e-04  6.738882e-17  7.492272e-01
   endloop
 endfacet
 facet normal -6.123234e-17  1.000000e+00 -6.123234e-17
   outer loop
     vertex  1.188746e-01  7.157219e-17  6.984256e-01
     vertex  4.526601e-02  6.943054e-17  7.370583e-01
     vertex  7.677192e-02  7.107619e-17  7.324278e-01
   endloop
 endfacet
 facet normal -6.123234e-17  1.000000e+00 -6.123234e-17
   outer loop
     vertex  1.397990e-01  7.203636e-17  6.850816e-01
     vertex  1.660982e-01  7.027458e-17  6.300103e-01
     vertex  1.188746e-01  7.157219e-17  6.984256e-01
   endloop
 endfacet
 facet normal -6.123234e-17  1.000000e+00 -6.123234e-17
   outer loop
     vertex  1.397990e-01  7.203636e-17  6.850816e-01
     vertex  1.773849e-01  7.009492e-17  6.157895e-01
     vertex  1.660982e-01  7.027458e-17  6.300103e-01
   endloop
 endfacet
 facet normal -6.123234e-17  1.000000e+00 -6.123234e-17
   outer loop
     vertex  1.397990e-01  7.203636e-17  6.850816e-01
     vertex  1.188746e-01  7.157219e-17  6.984256e-01
     vertex  7.677192e-02  7.107619e-17  7.324278e-01
   endloop
 endfacet
 facet normal  7.990241e-17 -1.000000e+00  4.876562e-17
   outer loop
     vertex -2.249793e-01 -5.468750e-02  7.717499e-02
     vertex -3.515625e-01 -5.468750e-02  3.348644e-18
     vertex -2.647204e-01 -5.468750e-02  7.628767e-18
   endloop
 endfacet
 facet normal  5.419730e-17 -1.000000e+00  5.886325e-17
   outer loop
     vertex -1.392386e-01 -5.468750e-02  4.697572e-01
     vertex -2.249793e-01 -5.468750e-02  7.717499e-02
     vertex -1.634100e-01 -5.468750e-02  1.383677e-01
   endloop
 endfacet
 facet normal  7.674897e-17 -1.000000e+00  5.393792e-17
   outer loop
     vertex -1.392386e-01 -5.468750e-02  4.697572e-01
     vertex -3.515625e-01 -5.468750e-02  3.348644e-18
     vertex -2.249793e-01 -5.468750e-02  7.717499e-02
   endloop
 endfacet
 facet normal  6.110318e-17 -1.000000e+00  5.624207e-17
   outer loop
     vertex -7.701442e-02 -5.468750e-02  4.146313e-01
     vertex -1.634100e-01 -5.468750e-02  1.383677e-01
     vertex -8.599259e-02 -5.468750e-02  1.776345e-01
   endloop
 endfacet
 facet normal  5.227266e-17 -1.000000e+00  5.900363e-17
   outer loop
     vertex -7.701442e-02 -5.468750e-02  4.146313e-01
     vertex -1.392386e-01 -5.468750e-02  4.697572e-01
     vertex -1.634100e-01 -5.468750e-02  1.383677e-01
   endloop
 endfacet
 facet normal  7.990241e-17 -1.000000e+00  1.310567e-16
   outer loop
     vertex  3.510691e-01 -5.468750e-02 -3.967513e-17
     vertex  2.244859e-01 -5.468750e-02  7.717499e-02
     vertex  2.642270e-01 -5.468750e-02 -4.326005e-17
   endloop
 endfacet
 facet normal  1.066212e-16 -1.000000e+00  4.043608e-17
   outer loop
     vertex -1.687172e-01 -5.468750e-02  5.474857e-01
     vertex -3.515625e-01 -5.468750e-02  3.348644e-18
     vertex -1.392386e-01 -5.468750e-02  4.697572e-01
   endloop
 endfacet
 facet normal  7.038500e-17 -1.000000e+00  6.680546e-17
   outer loop
     vertex  3.700658e-03 -5.468750e-02  3.947368e-01
     vertex -8.599259e-02 -5.468750e-02  1.776345e-01
     vertex -2.467105e-04 -5.468750e-02  1.911614e-01
   endloop
 endfacet
 facet normal  1.072144e-17 -1.000000e+00  6.796235e-17
   outer loop
     vertex  3.700658e-03 -5.468750e-02  3.947368e-01
     vertex -2.467105e-04 -5.468750e-02  1.911614e-01
     vertex  8.549917e-02 -5.468750e-02  1.776345e-01
   endloop
 endfacet
 facet normal  9.947192e-17 -1.000000e+00  5.478855e-17
   outer loop
     vertex  3.700658e-03 -5.468750e-02  3.947368e-01
     vertex -7.701442e-02 -5.468750e-02  4.146313e-01
     vertex -8.599259e-02 -5.468750e-02  1.776345e-01
   endloop
 endfacet
 facet normal -5.457034e-17 -1.000000e+00  9.426966e-17
   outer loop
     vertex -1.778783e-01 -5.468750e-02  6.157895e-01
     vertex -3.515625e-01 -5.468750e-02  3.348644e-18
     vertex -1.687172e-01 -5.468750e-02  5.474857e-01
   endloop
 endfacet
 facet normal -6.850478e-17 -1.000000e+00  9.240073e-17
   outer loop
     vertex -1.586969e-01 -5.468750e-02  6.300103e-01
     vertex -1.778783e-01 -5.468750e-02  6.157895e-01
     vertex -1.687172e-01 -5.468750e-02  5.474857e-01
   endloop
 endfacet
 facet normal  1.344923e-16 -1.000000e+00  8.845011e-17
   outer loop
     vertex  8.441574e-02 -5.468750e-02  4.146313e-01
     vertex  8.549917e-02 -5.468750e-02  1.776345e-01
     vertex  1.629166e-01 -5.468750e-02  1.383677e-01
   endloop
 endfacet
 facet normal  6.424591e-17 -1.000000e+00  8.812898e-17
   outer loop
     vertex  8.441574e-02 -5.468750e-02  4.146313e-01
     vertex  3.700658e-03 -5.468750e-02  3.947368e-01
     vertex  8.549917e-02 -5.468750e-02  1.776345e-01
   endloop
 endfacet
 facet normal -1.241820e-16 -1.000000e+00  1.674993e-16
   outer loop
     vertex -1.402925e-01 -5.468750e-02  6.850816e-01
     vertex -1.778783e-01 -5.468750e-02  6.157895e-01
     vertex -1.586969e-01 -5.468750e-02  6.300103e-01
   endloop
 endfacet
 facet normal -6.902071e-17 -1.000000e+00  1.490648e-16
   outer loop
     vertex -1.114733e-01 -5.468750e-02  6.984256e-01
     vertex -1.402925e-01 -5.468750e-02  6.850816e-01
     vertex -1.586969e-01 -5.468750e-02  6.300103e-01
   endloop
 endfacet
 facet normal  6.563619e-17 -1.000000e+00  6.604016e-17
   outer loop
     vertex  1.466400e-01 -5.468750e-02  4.697572e-01
     vertex  1.629166e-01 -5.468750e-02  1.383677e-01
     vertex  2.244859e-01 -5.468750e-02  7.717499e-02
   endloop
 endfacet
 facet normal  5.353445e-17 -1.000000e+00  6.544577e-17
   outer loop
     vertex  1.466400e-01 -5.468750e-02  4.697572e-01
     vertex  8.441574e-02 -5.468750e-02  4.146313e-01
     vertex  1.629166e-01 -5.468750e-02  1.383677e-01
   endloop
 endfacet
 facet normal  3.677396e-17 -1.000000e+00  6.031701e-17
   outer loop
     vertex  1.466400e-01 -5.468750e-02  4.697572e-01
     vertex  2.244859e-01 -5.468750e-02  7.717499e-02
     vertex  3.510691e-01 -5.468750e-02 -3.967513e-17
   endloop
 endfacet
 facet normal -1.768899e-16 -1.000000e+00  3.820311e-16
   outer loop
     vertex -7.726534e-02 -5.468750e-02  7.324278e-01
     vertex -1.402925e-01 -5.468750e-02  6.850816e-01
     vertex -1.114733e-01 -5.468750e-02  6.984256e-01
   endloop
 endfacet
 facet normal -2.719883e-17 -1.000000e+00  2.314347e-16
   outer loop
     vertex -3.786469e-02 -5.468750e-02  7.370583e-01
     vertex -7.726534e-02 -5.468750e-02  7.324278e-01
     vertex -1.114733e-01 -5.468750e-02  6.984256e-01
   endloop
 endfacet
 facet normal -5.441067e-17 -1.000000e+00  2.063525e-17
   outer loop
     vertex  1.761185e-01 -5.468750e-02  5.474857e-01
     vertex  1.466400e-01 -5.468750e-02  4.697572e-01
     vertex  3.510691e-01 -5.468750e-02 -3.967513e-17
   endloop
 endfacet
 facet normal -1.052509e-16 -1.000000e+00  8.955792e-16
   outer loop
     vertex -2.467105e-04 -5.468750e-02  7.492272e-01
     vertex -7.726534e-02 -5.468750e-02  7.324278e-01
     vertex -3.786469e-02 -5.468750e-02  7.370583e-01
   endloop
 endfacet
 facet normal  8.346969e-17 -1.000000e+00  3.121835e-16
   outer loop
     vertex  4.526601e-02 -5.468750e-02  7.370583e-01
     vertex -2.467105e-04 -5.468750e-02  7.492272e-01
     vertex -3.786469e-02 -5.468750e-02  7.370583e-01
   endloop
 endfacet
 facet normal  1.880148e-16 -1.000000e+00  9.810298e-17
   outer loop
     vertex  1.773849e-01 -5.468750e-02  6.157895e-01
     vertex  1.761185e-01 -5.468750e-02  5.474857e-01
     vertex  3.510691e-01 -5.468750e-02 -3.967513e-17
   endloop
 endfacet
 facet normal  1.250771e-16 -1.000000e+00  9.926985e-17
   outer loop
     vertex  1.660982e-01 -5.468750e-02  6.300103e-01
     vertex  1.761185e-01 -5.468750e-02  5.474857e-01
     vertex  1.773849e-01 -5.468750e-02  6.157895e-01
   endloop
 endfacet
 facet normal  0.000000e+00 -1.000000e+00  0.000000e+00
   outer loop
     vertex  7.677192e-02 -5.468750e-02  7.324278e-01
     vertex -2.467105e-04 -5.468750e-02  7.492272e-01
     vertex  4.526601e-02 -5.468750e-02  7.370583e-01
   endloop
 endfacet
 facet normal  0.000000e+00 -1.000000e+00  0.000000e+00
   outer loop
     vertex  1.188746e-01 -5.468750e-02  6.984256e-01
     vertex  7.677192e-02 -5.468750e-02  7.324278e-01
     vertex  4.526601e-02 -5.468750e-02  7.370583e-01
   endloop
 endfacet
 facet normal -0.000000e+00 -1.000000e+00 -0.000000e+00
   outer loop
     vertex  1.397990e-01 -5.468750e-02  6.850816e-01
     vertex  1.188746e-01 -5.468750e-02  6.984256e-01
     vertex  1.660982e-01 -5.468750e-02  6.300103e-01
   endloop
 endfacet
 facet normal  0.000000e+00 -1.000000e+00  0.000000e+00
   outer loop
     vertex  1.397990e-01 -5.468750e-02  6.850816e-01
     vertex  1.660982e-01 -5.468750e-02  6.300103e-01
     vertex  1.773849e-01 -5.468750e-02  6.157895e-01
   endloop
 endfacet
 facet normal  0.000000e+00 -1.000000e+00  0.000000e+00
   outer loop
     vertex  1.397990e-01 -5.468750e-02  6.850816e-01
     vertex  7.677192e-02 -5.468750e-02  7.324278e-01
     vertex  1.188746e-01 -5.468750e-02  6.984256e-01
   endloop
 endfacet
endsolid
