solid 
 facet normal -5.551115e-17  0.000000e+00 -1.000000e+00
   outer loop
     vertex  7.500000e-01  9.184851e-17 -1.875000e-01
     vertex -7.500000e-01 -4.687500e-02 -1.875000e-01
     vertex -7.500000e-01  0.000000e+00 -1.875000e-01
   endloop
 endfacet
 facet normal -5.551115e-17 -0.000000e+00 -1.000000e+00
   outer loop
     vertex  7.500000e-01  9.184851e-17 -1.875000e-01
     vertex  7.500000e-01 -4.687500e-02 -1.875000e-01
     vertex -7.500000e-01 -4.687500e-02 -1.875000e-01
   endloop
 endfacet
 facet normal  1.000000e+00  0.000000e+00  0.000000e+00
   outer loop
     vertex  7.500000e-01  1.150523e-16  1.914474e-01
     vertex  7.500000e-01 -4.687500e-02 -1.875000e-01
     vertex  7.500000e-01  9.184851e-17 -1.875000e-01
   endloop
 endfacet
 facet normal  1.000000e+00  0.000000e+00  0.000000e+00
   outer loop
     vertex  7.500000e-01  1.150523e-16  1.914474e-01
     vertex  7.500000e-01 -4.687500e-02  1.914474e-01
     vertex  7.500000e-01 -4.687500e-02 -1.875000e-01
   endloop
 endfacet
 facet normal  7.401487e-17  0.000000e+00  1.000000e+00
   outer loop
     vertex -7.500000e-01  2.320383e-17  1.914474e-01
     vertex  7.500000e-01 -4.687500e-02  1.914474e-01
     vertex  7.500000e-01  1.150523e-16  1.914474e-01
   endloop
 endfacet
 facet normal  7.401487e-17  0.000000e+00  1.000000e+00
   outer loop
     vertex -7.500000e-01  2.320383e-17  1.914474e-01
     vertex -7.500000e-01 -4.687500e-02  1.914474e-01
     vertex  7.500000e-01 -4.687500e-02  1.914474e-01
   endloop
 endfacet
 facet normal -1.000000e+00  0.000000e+00  0.000000e+00
   outer loop
     vertex -7.500000e-01  0.000000e+00 -1.875000e-01
     vertex -7.500000e-01 -4.687500e-02  1.914474e-01
     vertex -7.500000e-01  2.320383e-17  1.914474e-01
   endloop
 endfacet
 facet normal -1.000000e+00  0.000000e+00  0.000000e+00
   outer loop
     vertex -7.500000e-01  0.000000e+00 -1.875000e-01
     vertex -7.500000e-01 -4.687500e-02 -1.875000e-01
     vertex -7.500000e-01 -4.687500e-02  1.914474e-01
   endloop
 endfacet
 facet normal -6.123234e-17  1.000000e+00 -6.123234e-17
   outer loop
     vertex  7.500000e-01  1.150523e-16  1.914474e-01
     vertex  7.500000e-01  9.184851e-17 -1.875000e-01
     vertex -7.500000e-01  0.000000e+00 -1.875000e-01
   endloop
 endfacet
 facet normal -6.123234e-17  1.000000e+00 -6.123234e-17
   outer loop
     vertex  7.500000e-01  1.150523e-16  1.914474e-01
     vertex -7.500000e-01  0.000000e+00 -1.875000e-01
     vertex -7.500000e-01  2.320383e-17  1.914474e-01
   endloop
 endfacet
 facet normal  6.013708e-17 -1.000000e+00  7.324388e-17
   outer loop
     vertex  7.500000e-01 -4.687500e-02  1.914474e-01
     vertex -7.500000e-01 -4.687500e-02 -1.875000e-01
     vertex  7.500000e-01 -4.687500e-02 -1.875000e-01
   endloop
 endfacet
 facet normal  6.476301e-17 -1.000000e+00  5.493291e-17
   outer loop
     vertex  7.500000e-01 -4.687500e-02  1.914474e-01
     vertex -7.500000e-01 -4.687500e-02  1.914474e-01
     vertex -7.500000e-01 -4.687500e-02 -1.875000e-01
   endloop
 endfacet
endsolid
