solid 
 facet normal  6.476301e-17  0.000000e+00 -1.000000e+00
   outer loop
     vertex  0.000000e+00 -6.953125e-01 -6.250000e-02
     vertex  7.500000e-01 -7.500000e-01 -6.250000e-02
     vertex  0.000000e+00 -7.500000e-01 -6.250000e-02
   endloop
 endfacet
 facet normal  6.476301e-17 -2.428224e-49 -1.000000e+00
   outer loop
     vertex  5.858437e-35 -6.796875e-01 -6.250000e-02
     vertex  7.500000e-01 -7.500000e-01 -6.250000e-02
     vertex  0.000000e+00 -6.953125e-01 -6.250000e-02
   endloop
 endfacet
 facet normal  4.244474e-17 -6.978545e-17 -1.000000e+00
   outer loop
     vertex -4.783777e-19 -1.124132e-01 -6.250000e-02
     vertex  7.500000e-01  3.437500e-01 -6.250000e-02
     vertex  7.500000e-01 -7.500000e-01 -6.250000e-02
   endloop
 endfacet
 facet normal  6.017601e-17 -4.892796e-17 -1.000000e+00
   outer loop
     vertex -4.783777e-19 -1.124132e-01 -6.250000e-02
     vertex  7.500000e-01 -7.500000e-01 -6.250000e-02
     vertex  5.858437e-35 -6.796875e-01 -6.250000e-02
   endloop
 endfacet
 facet normal  8.069463e-17 -1.326740e-16 -1.000000e+00
   outer loop
     vertex -4.783777e-19 -7.812500e-03 -6.250000e-02
     vertex  7.500000e-01  3.437500e-01 -6.250000e-02
     vertex -4.783777e-19 -1.124132e-01 -6.250000e-02
   endloop
 endfacet
 facet normal  5.551115e-17 -7.894919e-17 -1.000000e+00
   outer loop
     vertex  4.100906e-33  3.437500e-01 -6.250000e-02
     vertex  7.500000e-01  3.437500e-01 -6.250000e-02
     vertex -4.783777e-19 -7.812500e-03 -6.250000e-02
   endloop
 endfacet
 facet normal  0.000000e+00  1.000000e+00  0.000000e+00
   outer loop
     vertex -3.383892e-17  3.437500e-01  4.901316e-01
     vertex  7.500000e-01  3.437500e-01 -6.250000e-02
     vertex  4.100906e-33  3.437500e-01 -6.250000e-02
   endloop
 endfacet
 facet normal -0.000000e+00  1.000000e+00  0.000000e+00
   outer loop
     vertex -3.383892e-17  3.437500e-01  4.901316e-01
     vertex  7.500000e-01  3.437500e-01  4.901316e-01
     vertex  7.500000e-01  3.437500e-01 -6.250000e-02
   endloop
 endfacet
 facet normal -7.401487e-17  1.015061e-16  1.000000e+00
   outer loop
     vertex -3.383892e-17 -7.500000e-01  4.901316e-01
     vertex  7.500000e-01  3.437500e-01  4.901316e-01
     vertex -3.383892e-17  3.437500e-01  4.901316e-01
   endloop
 endfacet
 facet normal -7.401487e-17  1.015061e-16  1.000000e+00
   outer loop
     vertex -3.383892e-17 -7.500000e-01  4.901316e-01
     vertex  7.500000e-01 -7.500000e-01  4.901316e-01
     vertex  7.500000e-01  3.437500e-01  4.901316e-01
   endloop
 endfacet
 facet normal  0.000000e+00 -1.000000e+00  0.000000e+00
   outer loop
     vertex  0.000000e+00 -7.500000e-01 -6.250000e-02
     vertex  7.500000e-01 -7.500000e-01  4.901316e-01
     vertex -3.383892e-17 -7.500000e-01  4.901316e-01
   endloop
 endfacet
 facet normal  0.000000e+00 -1.000000e+00  0.000000e+00
   outer loop
     vertex  0.000000e+00 -7.500000e-01 -6.250000e-02
     vertex  7.500000e-01 -7.500000e-01 -6.250000e-02
     vertex  7.500000e-01 -7.500000e-01  4.901316e-01
   endloop
 endfacet
 facet normal -1.000000e+00  0.000000e+00 -6.123234e-17
   outer loop
     vertex -4.834132e-19 -6.953125e-01 -5.460526e-02
     vertex  0.000000e+00 -6.953125e-01 -6.250000e-02
     vertex  0.000000e+00 -7.500000e-01 -6.250000e-02
   endloop
 endfacet
 facet normal -1.000000e+00 -9.741167e-18  6.245533e-18
   outer loop
     vertex  1.541694e-36 -6.949013e-01  2.343750e-02
     vertex -4.834132e-19 -6.953125e-01 -5.460526e-02
     vertex  0.000000e+00 -7.500000e-01 -6.250000e-02
   endloop
 endfacet
 facet normal -1.000000e+00 -5.318172e-17  4.626263e-17
   outer loop
     vertex  1.183355e-18 -6.755757e-01  4.111842e-03
     vertex -9.567553e-19 -6.796875e-01 -4.687500e-02
     vertex -4.834132e-19 -6.953125e-01 -5.460526e-02
   endloop
 endfacet
 facet normal -1.000000e+00  6.707316e-17  5.840821e-18
   outer loop
     vertex  1.183355e-18 -6.755757e-01  4.111842e-03
     vertex -4.834132e-19 -6.953125e-01 -5.460526e-02
     vertex  1.541694e-36 -6.949013e-01  2.343750e-02
   endloop
 endfacet
 facet normal -1.000000e+00  2.245186e-16 -6.123234e-17
   outer loop
     vertex  2.913801e-34 -6.562500e-01  2.343750e-02
     vertex  5.858437e-35 -6.796875e-01 -6.250000e-02
     vertex -9.567553e-19 -6.796875e-01 -4.687500e-02
   endloop
 endfacet
 facet normal -1.000000e+00 -1.122593e-16  5.102695e-17
   outer loop
     vertex  2.913801e-34 -6.562500e-01  2.343750e-02
     vertex -9.567553e-19 -6.796875e-01 -4.687500e-02
     vertex  1.183355e-18 -6.755757e-01  4.111842e-03
   endloop
 endfacet
 facet normal -1.000000e+00 -6.077538e-17 -4.569578e-19
   outer loop
     vertex  0.000000e+00 -6.953125e-01  7.812500e-02
     vertex -1.183355e-18 -6.755757e-01  4.276316e-02
     vertex  1.541694e-36 -6.949013e-01  2.343750e-02
   endloop
 endfacet
 facet normal -1.000000e+00  7.111611e-35 -2.765627e-35
   outer loop
     vertex  0.000000e+00 -6.953125e-01  7.812500e-02
     vertex  1.541694e-36 -6.949013e-01  2.343750e-02
     vertex  0.000000e+00 -7.500000e-01 -6.250000e-02
   endloop
 endfacet
 facet normal -1.000000e+00  2.143132e-16  1.530808e-16
   outer loop
     vertex  2.175359e-18 -6.597862e-01  4.259868e-02
     vertex  2.913801e-34 -6.562500e-01  2.343750e-02
     vertex -1.183355e-18 -6.755757e-01  4.276316e-02
   endloop
 endfacet
 facet normal -1.000000e+00  2.143132e-16  1.530808e-16
   outer loop
     vertex  2.175359e-18 -6.597862e-01  4.259868e-02
     vertex -1.183355e-18 -6.755757e-01  4.276316e-02
     vertex  0.000000e+00 -6.953125e-01  7.812500e-02
   endloop
 endfacet
 facet normal -1.000000e+00 -1.475344e-16  8.630210e-17
   outer loop
     vertex  5.328094e-34 -6.242599e-01  7.812500e-02
     vertex  2.913801e-34 -6.562500e-01  2.343750e-02
     vertex  2.175359e-18 -6.597862e-01  4.259868e-02
   endloop
 endfacet
 facet normal -1.000000e+00  1.845063e-17 -7.968297e-17
   outer loop
     vertex -3.383892e-17 -7.500000e-01  4.901316e-01
     vertex -2.175359e-18 -6.597862e-01  1.136513e-01
     vertex  0.000000e+00 -6.953125e-01  7.812500e-02
   endloop
 endfacet
 facet normal -1.000000e+00 -3.007966e-17 -9.131200e-17
   outer loop
     vertex -3.383892e-17 -7.500000e-01  4.901316e-01
     vertex  5.328094e-34 -6.242599e-01  7.812500e-02
     vertex -2.175359e-18 -6.597862e-01  1.136513e-01
   endloop
 endfacet
 facet normal -1.000000e+00  1.574546e-16 -6.123234e-17
   outer loop
     vertex -3.383892e-17 -7.500000e-01  4.901316e-01
     vertex  0.000000e+00 -6.953125e-01  7.812500e-02
     vertex  0.000000e+00 -7.500000e-01 -6.250000e-02
   endloop
 endfacet
 facet normal -1.000000e+00 -8.432916e-19  2.299886e-19
   outer loop
     vertex -4.783777e-19 -1.124132e-01 -6.250000e-02
     vertex  5.858437e-35 -6.796875e-01 -6.250000e-02
     vertex  2.913801e-34 -6.562500e-01  2.343750e-02
   endloop
 endfacet
 facet normal -1.000000e+00 -2.565032e-17 -8.996021e-17
   outer loop
     vertex -4.783777e-19 -1.124132e-01 -6.250000e-02
     vertex  5.328094e-34 -6.242599e-01  7.812500e-02
     vertex -3.383892e-17 -7.500000e-01  4.901316e-01
   endloop
 endfacet
 facet normal -1.000000e+00 -8.052045e-19  4.710144e-19
   outer loop
     vertex -4.783777e-19 -1.124132e-01 -6.250000e-02
     vertex  2.913801e-34 -6.562500e-01  2.343750e-02
     vertex  5.328094e-34 -6.242599e-01  7.812500e-02
   endloop
 endfacet
 facet normal -1.000000e+00 -3.410376e-18 -6.430135e-17
   outer loop
     vertex -3.383892e-18 -7.812500e-03 -2.286184e-02
     vertex -4.783777e-19 -1.124132e-01 -6.250000e-02
     vertex -3.383892e-17 -7.500000e-01  4.901316e-01
   endloop
 endfacet
 facet normal -1.000000e+00  1.360719e-18 -7.330095e-17
   outer loop
     vertex  4.100906e-33  3.437500e-01 -6.250000e-02
     vertex -4.783777e-19 -7.812500e-03 -6.250000e-02
     vertex -3.383892e-18 -7.812500e-03 -2.286184e-02
   endloop
 endfacet
 facet normal -1.000000e+00  2.721437e-18 -6.123234e-17
   outer loop
     vertex -3.383892e-17  3.437500e-01  4.901316e-01
     vertex  4.100906e-33  3.437500e-01 -6.250000e-02
     vertex -3.383892e-18 -7.812500e-03 -2.286184e-02
   endloop
 endfacet
 facet normal -1.000000e+00 -3.914222e-34 -5.936730e-17
   outer loop
     vertex -3.383892e-17  3.437500e-01  4.901316e-01
     vertex -3.383892e-18 -7.812500e-03 -2.286184e-02
     vertex -3.383892e-17 -7.500000e-01  4.901316e-01
   endloop
 endfacet
 facet normal -1.000000e+00  0.000000e+00 -6.123234e-17
   outer loop
     vertex -2.175359e-18 -6.597862e-01  1.136513e-01
     vertex  2.175359e-18 -6.597862e-01  4.259868e-02
     vertex  0.000000e+00 -6.953125e-01  7.812500e-02
   endloop
 endfacet
 facet normal -1.000000e+00  9.537184e-33 -6.123234e-17
   outer loop
     vertex -2.175359e-18 -6.597862e-01  1.136513e-01
     vertex  5.328094e-34 -6.242599e-01  7.812500e-02
     vertex  2.175359e-18 -6.597862e-01  4.259868e-02
   endloop
 endfacet
 facet normal -1.000000e+00  2.002418e-33 -6.123234e-17
   outer loop
     vertex  2.913801e-34 -6.562500e-01  2.343750e-02
     vertex  1.541694e-36 -6.949013e-01  2.343750e-02
     vertex -1.183355e-18 -6.755757e-01  4.276316e-02
   endloop
 endfacet
 facet normal -1.000000e+00  2.002418e-33 -6.123234e-17
   outer loop
     vertex  2.913801e-34 -6.562500e-01  2.343750e-02
     vertex  1.183355e-18 -6.755757e-01  4.111842e-03
     vertex  1.541694e-36 -6.949013e-01  2.343750e-02
   endloop
 endfacet
 facet normal -1.000000e+00 -5.806340e-33 -7.330095e-17
   outer loop
     vertex -3.383892e-18 -7.812500e-03 -2.286184e-02
     vertex -4.783777e-19 -7.812500e-03 -6.250000e-02
     vertex -4.783777e-19 -1.124132e-01 -6.250000e-02
   endloop
 endfacet
 facet normal -1.000000e+00  3.749399e-33 -6.123234e-17
   outer loop
     vertex  5.858437e-35 -6.796875e-01 -6.250000e-02
     vertex  0.000000e+00 -6.953125e-01 -6.250000e-02
     vertex -4.834132e-19 -6.953125e-01 -5.460526e-02
   endloop
 endfacet
 facet normal -1.000000e+00  1.232595e-32 -6.123234e-17
   outer loop
     vertex -9.567553e-19 -6.796875e-01 -4.687500e-02
     vertex  5.858437e-35 -6.796875e-01 -6.250000e-02
     vertex -4.834132e-19 -6.953125e-01 -5.460526e-02
   endloop
 endfacet
 facet normal  1.000000e+00  0.000000e+00  0.000000e+00
   outer loop
     vertex  7.500000e-01  3.437500e-01  4.901316e-01
     vertex  7.500000e-01 -7.500000e-01 -6.250000e-02
     vertex  7.500000e-01  3.437500e-01 -6.250000e-02
   endloop
 endfacet
 facet normal  1.000000e+00  0.000000e+00  0.000000e+00
   outer loop
     vertex  7.500000e-01  3.437500e-01  4.901316e-01
     vertex  7.500000e-01 -7.500000e-01  4.901316e-01
     vertex  7.500000e-01 -7.500000e-01 -6.250000e-02
   endloop
 endfacet
endsolid
