solid 
 facet normal -6.123234e-17 -6.123234e-17 -1.000000e+00
   outer loop
     vertex  2.109375e-01  1.291620e-17 -1.291620e-17
     vertex  0.000000e+00  0.000000e+00  0.000000e+00
     vertex -4.592425e-17  7.500000e-01 -4.592425e-17
   endloop
 endfacet
 facet normal -6.123234e-17 -6.123234e-17 -1.000000e+00
   outer loop
     vertex  2.109375e-01  1.291620e-17 -1.291620e-17
     vertex -4.592425e-17  7.500000e-01 -4.592425e-17
     vertex  2.109375e-01  7.500000e-01 -5.884045e-17
   endloop
 endfacet
 facet normal -1.000000e+00 -2.496132e-16 -2.496132e-16
   outer loop
     vertex  0.000000e+00  7.193257e-01  1.093750e-01
     vertex  0.000000e+00  6.916941e-01  1.370066e-01
     vertex -3.300806e-17  7.500000e-01  2.109375e-01
   endloop
 endfacet
 facet normal -1.000000e+00 -3.279148e-16  3.279148e-16
   outer loop
     vertex -4.592425e-17  7.500000e-01 -4.592425e-17
     vertex  0.000000e+00  6.916941e-01  8.174342e-02
     vertex  0.000000e+00  7.193257e-01  1.093750e-01
   endloop
 endfacet
 facet normal -1.000000e+00 -1.278820e-15  6.123234e-17
   outer loop
     vertex -4.592425e-17  7.500000e-01 -4.592425e-17
     vertex  0.000000e+00  7.193257e-01  1.093750e-01
     vertex -3.300806e-17  7.500000e-01  2.109375e-01
   endloop
 endfacet
 facet normal -1.000000e+00  0.000000e+00 -4.464716e-16
   outer loop
     vertex  0.000000e+00  7.450658e-02  1.370066e-01
     vertex -3.300806e-17  7.500000e-01  2.109375e-01
     vertex  0.000000e+00  6.916941e-01  1.370066e-01
   endloop
 endfacet
 facet normal -1.000000e+00  0.000000e+00  0.000000e+00
   outer loop
     vertex  0.000000e+00  1.021382e-01  1.093750e-01
     vertex  0.000000e+00  6.916941e-01  1.370066e-01
     vertex  0.000000e+00  6.640625e-01  1.093750e-01
   endloop
 endfacet
 facet normal -1.000000e+00  0.000000e+00  0.000000e+00
   outer loop
     vertex  0.000000e+00  1.021382e-01  1.093750e-01
     vertex  0.000000e+00  7.450658e-02  1.370066e-01
     vertex  0.000000e+00  6.916941e-01  1.370066e-01
   endloop
 endfacet
 facet normal -1.000000e+00 -6.123234e-17  1.129972e-16
   outer loop
     vertex  1.291620e-17  1.291620e-17  2.109375e-01
     vertex -3.300806e-17  7.500000e-01  2.109375e-01
     vertex  0.000000e+00  7.450658e-02  1.370066e-01
   endloop
 endfacet
 facet normal -1.000000e+00  0.000000e+00  0.000000e+00
   outer loop
     vertex  0.000000e+00  7.450658e-02  8.174342e-02
     vertex  0.000000e+00  6.640625e-01  1.093750e-01
     vertex  0.000000e+00  6.916941e-01  8.174342e-02
   endloop
 endfacet
 facet normal -1.000000e+00  0.000000e+00  5.618098e-16
   outer loop
     vertex  0.000000e+00  7.450658e-02  8.174342e-02
     vertex  0.000000e+00  6.916941e-01  8.174342e-02
     vertex -4.592425e-17  7.500000e-01 -4.592425e-17
   endloop
 endfacet
 facet normal -1.000000e+00  0.000000e+00  0.000000e+00
   outer loop
     vertex  0.000000e+00  7.450658e-02  8.174342e-02
     vertex  0.000000e+00  1.021382e-01  1.093750e-01
     vertex  0.000000e+00  6.640625e-01  1.093750e-01
   endloop
 endfacet
 facet normal -1.000000e+00 -8.701438e-17  8.701438e-17
   outer loop
     vertex  0.000000e+00  4.687500e-02  1.093750e-01
     vertex  1.291620e-17  1.291620e-17  2.109375e-01
     vertex  0.000000e+00  7.450658e-02  1.370066e-01
   endloop
 endfacet
 facet normal -1.000000e+00  0.000000e+00  0.000000e+00
   outer loop
     vertex  0.000000e+00  0.000000e+00  0.000000e+00
     vertex  0.000000e+00  4.687500e-02  1.093750e-01
     vertex  0.000000e+00  7.450658e-02  8.174342e-02
   endloop
 endfacet
 facet normal -1.000000e+00 -6.123234e-17  5.581137e-17
   outer loop
     vertex  0.000000e+00  0.000000e+00  0.000000e+00
     vertex  0.000000e+00  7.450658e-02  8.174342e-02
     vertex -4.592425e-17  7.500000e-01 -4.592425e-17
   endloop
 endfacet
 facet normal -1.000000e+00 -1.428755e-16  6.123234e-17
   outer loop
     vertex  0.000000e+00  0.000000e+00  0.000000e+00
     vertex  1.291620e-17  1.291620e-17  2.109375e-01
     vertex  0.000000e+00  4.687500e-02  1.093750e-01
   endloop
 endfacet
 facet normal  1.000000e+00  3.963685e-16 -3.963685e-16
   outer loop
     vertex  2.109375e-01  6.916941e-01  8.174342e-02
     vertex  2.109375e-01  7.500000e-01 -5.884045e-17
     vertex  2.109375e-01  7.193257e-01  1.093750e-01
   endloop
 endfacet
 facet normal  1.000000e+00  4.197858e-16  4.197858e-16
   outer loop
     vertex  2.109375e-01  7.500000e-01  2.109375e-01
     vertex  2.109375e-01  6.916941e-01  1.370066e-01
     vertex  2.109375e-01  7.193257e-01  1.093750e-01
   endloop
 endfacet
 facet normal  1.000000e+00  1.809693e-15  0.000000e+00
   outer loop
     vertex  2.109375e-01  7.500000e-01  2.109375e-01
     vertex  2.109375e-01  7.193257e-01  1.093750e-01
     vertex  2.109375e-01  7.500000e-01 -5.884045e-17
   endloop
 endfacet
 facet normal  1.000000e+00  7.401487e-17 -6.746224e-17
   outer loop
     vertex  2.109375e-01  7.450658e-02  8.174342e-02
     vertex  2.109375e-01  1.291620e-17 -1.291620e-17
     vertex  2.109375e-01  7.500000e-01 -5.884045e-17
   endloop
 endfacet
 facet normal  1.000000e+00  0.000000e+00 -6.790901e-16
   outer loop
     vertex  2.109375e-01  7.450658e-02  8.174342e-02
     vertex  2.109375e-01  7.500000e-01 -5.884045e-17
     vertex  2.109375e-01  6.916941e-01  8.174342e-02
   endloop
 endfacet
 facet normal  1.000000e+00 -0.000000e+00  0.000000e+00
   outer loop
     vertex  2.109375e-01  1.021382e-01  1.093750e-01
     vertex  2.109375e-01  6.916941e-01  8.174342e-02
     vertex  2.109375e-01  6.640625e-01  1.093750e-01
   endloop
 endfacet
 facet normal  1.000000e+00  0.000000e+00  0.000000e+00
   outer loop
     vertex  2.109375e-01  1.021382e-01  1.093750e-01
     vertex  2.109375e-01  7.450658e-02  8.174342e-02
     vertex  2.109375e-01  6.916941e-01  8.174342e-02
   endloop
 endfacet
 facet normal  1.000000e+00 -0.000000e+00  0.000000e+00
   outer loop
     vertex  2.109375e-01  7.450658e-02  1.370066e-01
     vertex  2.109375e-01  6.640625e-01  1.093750e-01
     vertex  2.109375e-01  6.916941e-01  1.370066e-01
   endloop
 endfacet
 facet normal  1.000000e+00 -0.000000e+00  7.508516e-16
   outer loop
     vertex  2.109375e-01  7.450658e-02  1.370066e-01
     vertex  2.109375e-01  6.916941e-01  1.370066e-01
     vertex  2.109375e-01  7.500000e-01  2.109375e-01
   endloop
 endfacet
 facet normal  1.000000e+00  0.000000e+00  0.000000e+00
   outer loop
     vertex  2.109375e-01  7.450658e-02  1.370066e-01
     vertex  2.109375e-01  1.021382e-01  1.093750e-01
     vertex  2.109375e-01  6.640625e-01  1.093750e-01
   endloop
 endfacet
 facet normal  1.000000e+00  0.000000e+00  0.000000e+00
   outer loop
     vertex  2.109375e-01  4.687500e-02  1.093750e-01
     vertex  2.109375e-01  1.291620e-17 -1.291620e-17
     vertex  2.109375e-01  7.450658e-02  8.174342e-02
   endloop
 endfacet
 facet normal  1.000000e+00  0.000000e+00  0.000000e+00
   outer loop
     vertex  2.109375e-01  2.583239e-17  2.109375e-01
     vertex  2.109375e-01  4.687500e-02  1.093750e-01
     vertex  2.109375e-01  7.450658e-02  1.370066e-01
   endloop
 endfacet
 facet normal  1.000000e+00  7.401487e-17  7.459118e-17
   outer loop
     vertex  2.109375e-01  2.583239e-17  2.109375e-01
     vertex  2.109375e-01  7.450658e-02  1.370066e-01
     vertex  2.109375e-01  7.500000e-01  2.109375e-01
   endloop
 endfacet
 facet normal  1.000000e+00  0.000000e+00  0.000000e+00
   outer loop
     vertex  2.109375e-01  2.583239e-17  2.109375e-01
     vertex  2.109375e-01  1.291620e-17 -1.291620e-17
     vertex  2.109375e-01  4.687500e-02  1.093750e-01
   endloop
 endfacet
 facet normal  6.123234e-17 -1.000000e+00  6.123234e-17
   outer loop
     vertex  2.109375e-01  2.583239e-17  2.109375e-01
     vertex  0.000000e+00  0.000000e+00  0.000000e+00
     vertex  2.109375e-01  1.291620e-17 -1.291620e-17
   endloop
 endfacet
 facet normal  6.123234e-17 -1.000000e+00  6.123234e-17
   outer loop
     vertex  2.109375e-01  2.583239e-17  2.109375e-01
     vertex  1.291620e-17  1.291620e-17  2.109375e-01
     vertex  0.000000e+00  0.000000e+00  0.000000e+00
   endloop
 endfacet
 facet normal  0.000000e+00  1.000000e+00  0.000000e+00
   outer loop
     vertex  2.109375e-01  7.500000e-01  2.109375e-01
     vertex  2.109375e-01  7.500000e-01 -5.884045e-17
     vertex -4.592425e-17  7.500000e-01 -4.592425e-17
   endloop
 endfacet
 facet normal  0.000000e+00  1.000000e+00  0.000000e+00
   outer loop
     vertex  2.109375e-01  7.500000e-01  2.109375e-01
     vertex -4.592425e-17  7.500000e-01 -4.592425e-17
     vertex -3.300806e-17  7.500000e-01  2.109375e-01
   endloop
 endfacet
 facet normal -4.532104e-33  7.401487e-17  1.000000e+00
   outer loop
     vertex  1.291620e-17  1.291620e-17  2.109375e-01
     vertex  2.109375e-01  2.583239e-17  2.109375e-01
     vertex  2.109375e-01  7.500000e-01  2.109375e-01
   endloop
 endfacet
 facet normal  0.000000e+00  7.401487e-17  1.000000e+00
   outer loop
     vertex  1.291620e-17  1.291620e-17  2.109375e-01
     vertex  2.109375e-01  7.500000e-01  2.109375e-01
     vertex -3.300806e-17  7.500000e-01  2.109375e-01
   endloop
 endfacet
 facet normal  0.000000e+00  7.071068e-01 -7.071068e-01
   outer loop
     vertex  2.109375e-01  6.640625e-01  1.093750e-01
     vertex  0.000000e+00  6.916941e-01  1.370066e-01
     vertex  2.109375e-01  6.916941e-01  1.370066e-01
   endloop
 endfacet
 facet normal  4.652126e-17  7.071068e-01 -7.071068e-01
   outer loop
     vertex  2.109375e-01  6.640625e-01  1.093750e-01
     vertex  0.000000e+00  6.640625e-01  1.093750e-01
     vertex  0.000000e+00  6.916941e-01  1.370066e-01
   endloop
 endfacet
 facet normal -4.652126e-17  7.071068e-01  7.071068e-01
   outer loop
     vertex  2.109375e-01  6.916941e-01  8.174342e-02
     vertex  0.000000e+00  6.916941e-01  8.174342e-02
     vertex  0.000000e+00  6.640625e-01  1.093750e-01
   endloop
 endfacet
 facet normal -5.261333e-17  7.071068e-01  7.071068e-01
   outer loop
     vertex  2.109375e-01  6.916941e-01  8.174342e-02
     vertex  0.000000e+00  6.640625e-01  1.093750e-01
     vertex  2.109375e-01  6.640625e-01  1.093750e-01
   endloop
 endfacet
 facet normal -4.652126e-17 -7.071068e-01  7.071068e-01
   outer loop
     vertex  2.109375e-01  7.193257e-01  1.093750e-01
     vertex  0.000000e+00  7.193257e-01  1.093750e-01
     vertex  0.000000e+00  6.916941e-01  8.174342e-02
   endloop
 endfacet
 facet normal -3.946000e-17 -7.071068e-01  7.071068e-01
   outer loop
     vertex  2.109375e-01  7.193257e-01  1.093750e-01
     vertex  0.000000e+00  6.916941e-01  8.174342e-02
     vertex  2.109375e-01  6.916941e-01  8.174342e-02
   endloop
 endfacet
 facet normal -0.000000e+00 -7.071068e-01 -7.071068e-01
   outer loop
     vertex  2.109375e-01  6.916941e-01  1.370066e-01
     vertex  0.000000e+00  6.916941e-01  1.370066e-01
     vertex  0.000000e+00  7.193257e-01  1.093750e-01
   endloop
 endfacet
 facet normal  3.946000e-17 -7.071068e-01 -7.071068e-01
   outer loop
     vertex  2.109375e-01  6.916941e-01  1.370066e-01
     vertex  0.000000e+00  7.193257e-01  1.093750e-01
     vertex  2.109375e-01  7.193257e-01  1.093750e-01
   endloop
 endfacet
 facet normal  0.000000e+00  7.071068e-01 -7.071068e-01
   outer loop
     vertex  2.109375e-01  4.687500e-02  1.093750e-01
     vertex  0.000000e+00  7.450658e-02  1.370066e-01
     vertex  2.109375e-01  7.450658e-02  1.370066e-01
   endloop
 endfacet
 facet normal  4.652126e-17  7.071068e-01 -7.071068e-01
   outer loop
     vertex  2.109375e-01  4.687500e-02  1.093750e-01
     vertex  0.000000e+00  4.687500e-02  1.093750e-01
     vertex  0.000000e+00  7.450658e-02  1.370066e-01
   endloop
 endfacet
 facet normal -4.652126e-17  7.071068e-01  7.071068e-01
   outer loop
     vertex  2.109375e-01  7.450658e-02  8.174342e-02
     vertex  0.000000e+00  7.450658e-02  8.174342e-02
     vertex  0.000000e+00  4.687500e-02  1.093750e-01
   endloop
 endfacet
 facet normal -5.261333e-17  7.071068e-01  7.071068e-01
   outer loop
     vertex  2.109375e-01  7.450658e-02  8.174342e-02
     vertex  0.000000e+00  4.687500e-02  1.093750e-01
     vertex  2.109375e-01  4.687500e-02  1.093750e-01
   endloop
 endfacet
 facet normal -4.652126e-17 -7.071068e-01  7.071068e-01
   outer loop
     vertex  2.109375e-01  1.021382e-01  1.093750e-01
     vertex  0.000000e+00  1.021382e-01  1.093750e-01
     vertex  0.000000e+00  7.450658e-02  8.174342e-02
   endloop
 endfacet
 facet normal -3.946000e-17 -7.071068e-01  7.071068e-01
   outer loop
     vertex  2.109375e-01  1.021382e-01  1.093750e-01
     vertex  0.000000e+00  7.450658e-02  8.174342e-02
     vertex  2.109375e-01  7.450658e-02  8.174342e-02
   endloop
 endfacet
 facet normal -0.000000e+00 -7.071068e-01 -7.071068e-01
   outer loop
     vertex  2.109375e-01  7.450658e-02  1.370066e-01
     vertex  0.000000e+00  7.450658e-02  1.370066e-01
     vertex  0.000000e+00  1.021382e-01  1.093750e-01
   endloop
 endfacet
 facet normal  3.946000e-17 -7.071068e-01 -7.071068e-01
   outer loop
     vertex  2.109375e-01  7.450658e-02  1.370066e-01
     vertex  0.000000e+00  1.021382e-01  1.093750e-01
     vertex  2.109375e-01  1.021382e-01  1.093750e-01
   endloop
 endfacet
endsolid
