solid 
 facet normal  0.000000e+00 -5.551115e-17 -1.000000e+00
   outer loop
     vertex  5.624099e-33  7.500000e-01 -1.328125e-01
     vertex  4.687500e-02 -7.500000e-01 -1.328125e-01
     vertex  0.000000e+00 -7.500000e-01 -1.328125e-01
   endloop
 endfacet
 facet normal  0.000000e+00 -5.551115e-17 -1.000000e+00
   outer loop
     vertex  5.624099e-33  7.500000e-01 -1.328125e-01
     vertex  4.687500e-02  7.500000e-01 -1.328125e-01
     vertex  4.687500e-02 -7.500000e-01 -1.328125e-01
   endloop
 endfacet
 facet normal  0.000000e+00  1.000000e+00  0.000000e+00
   outer loop
     vertex -4.544084e-17  7.500000e-01  6.092928e-01
     vertex  4.687500e-02  7.500000e-01 -1.328125e-01
     vertex  5.624099e-33  7.500000e-01 -1.328125e-01
   endloop
 endfacet
 facet normal -0.000000e+00  1.000000e+00  0.000000e+00
   outer loop
     vertex -4.544084e-17  7.500000e-01  6.092928e-01
     vertex  4.687500e-02  7.500000e-01  6.092928e-01
     vertex  4.687500e-02  7.500000e-01 -1.328125e-01
   endloop
 endfacet
 facet normal  0.000000e+00  7.401487e-17  1.000000e+00
   outer loop
     vertex -4.544084e-17 -7.500000e-01  6.092928e-01
     vertex  4.687500e-02  7.500000e-01  6.092928e-01
     vertex -4.544084e-17  7.500000e-01  6.092928e-01
   endloop
 endfacet
 facet normal -0.000000e+00  7.401487e-17  1.000000e+00
   outer loop
     vertex -4.544084e-17 -7.500000e-01  6.092928e-01
     vertex  4.687500e-02 -7.500000e-01  6.092928e-01
     vertex  4.687500e-02  7.500000e-01  6.092928e-01
   endloop
 endfacet
 facet normal  0.000000e+00 -1.000000e+00  0.000000e+00
   outer loop
     vertex  0.000000e+00 -7.500000e-01 -1.328125e-01
     vertex  4.687500e-02 -7.500000e-01  6.092928e-01
     vertex -4.544084e-17 -7.500000e-01  6.092928e-01
   endloop
 endfacet
 facet normal  0.000000e+00 -1.000000e+00  0.000000e+00
   outer loop
     vertex  0.000000e+00 -7.500000e-01 -1.328125e-01
     vertex  4.687500e-02 -7.500000e-01 -1.328125e-01
     vertex  4.687500e-02 -7.500000e-01  6.092928e-01
   endloop
 endfacet
 facet normal -1.000000e+00  2.857509e-17 -3.265725e-17
   outer loop
     vertex  0.000000e+00 -6.875000e-01 -7.812500e-02
     vertex  2.175359e-18 -6.519737e-01 -1.136513e-01
     vertex  0.000000e+00 -7.500000e-01 -1.328125e-01
   endloop
 endfacet
 facet normal -1.000000e+00 -6.358743e-17  2.355090e-18
   outer loop
     vertex  2.130039e-18 -7.144737e-01  9.802632e-02
     vertex -2.175359e-18 -6.519737e-01 -4.259868e-02
     vertex  0.000000e+00 -6.875000e-01 -7.812500e-02
   endloop
 endfacet
 facet normal -1.000000e+00 -9.330432e-18  1.066335e-17
   outer loop
     vertex  2.130039e-18 -7.144737e-01  9.802632e-02
     vertex  0.000000e+00 -6.875000e-01 -7.812500e-02
     vertex  0.000000e+00 -7.500000e-01 -1.328125e-01
   endloop
 endfacet
 facet normal -1.000000e+00  6.106220e-17 -1.701423e-19
   outer loop
     vertex  2.775049e-36 -7.492599e-01  1.328125e-01
     vertex  2.130039e-18 -7.144737e-01  9.802632e-02
     vertex  0.000000e+00 -7.500000e-01 -1.328125e-01
   endloop
 endfacet
 facet normal -1.000000e+00  8.745042e-17  2.621808e-17
   outer loop
     vertex  5.244842e-34 -6.796875e-01  1.328125e-01
     vertex  5.328094e-34 -6.164474e-01 -7.812500e-02
     vertex -2.175359e-18 -6.519737e-01 -4.259868e-02
   endloop
 endfacet
 facet normal -1.000000e+00 -6.358743e-17  2.355090e-18
   outer loop
     vertex  5.244842e-34 -6.796875e-01  1.328125e-01
     vertex -2.175359e-18 -6.519737e-01 -4.259868e-02
     vertex  2.130039e-18 -7.144737e-01  9.802632e-02
   endloop
 endfacet
 facet normal -1.000000e+00  3.408245e-17 -9.531479e-17
   outer loop
     vertex -4.544084e-17 -7.500000e-01  6.092928e-01
     vertex -2.130039e-18 -7.144737e-01  1.675987e-01
     vertex  2.775049e-36 -7.492599e-01  1.328125e-01
   endloop
 endfacet
 facet normal -1.000000e+00 -4.004464e-17 -1.012770e-16
   outer loop
     vertex -4.544084e-17 -7.500000e-01  6.092928e-01
     vertex  5.244842e-34 -6.796875e-01  1.328125e-01
     vertex -2.130039e-18 -7.144737e-01  1.675987e-01
   endloop
 endfacet
 facet normal -1.000000e+00 -2.356317e-18 -5.887602e-17
   outer loop
     vertex  5.624099e-33  7.500000e-01 -1.328125e-01
     vertex  2.175359e-18 -6.519737e-01 -1.136513e-01
     vertex  5.328094e-34 -6.164474e-01 -7.812500e-02
   endloop
 endfacet
 facet normal -1.000000e+00  1.005155e-32  1.135295e-16
   outer loop
     vertex  5.624099e-33  7.500000e-01 -1.328125e-01
     vertex  0.000000e+00 -7.500000e-01 -1.328125e-01
     vertex  2.175359e-18 -6.519737e-01 -1.136513e-01
   endloop
 endfacet
 facet normal -1.000000e+00 -2.450620e-18 -6.123234e-17
   outer loop
     vertex -4.544084e-17  7.500000e-01  6.092928e-01
     vertex  5.624099e-33  7.500000e-01 -1.328125e-01
     vertex  5.328094e-34 -6.164474e-01 -7.812500e-02
   endloop
 endfacet
 facet normal -1.000000e+00 -2.889649e-17 -8.663313e-18
   outer loop
     vertex -4.544084e-17  7.500000e-01  6.092928e-01
     vertex  5.328094e-34 -6.164474e-01 -7.812500e-02
     vertex  5.244842e-34 -6.796875e-01  1.328125e-01
   endloop
 endfacet
 facet normal -1.000000e+00 -2.949980e-33 -9.536773e-17
   outer loop
     vertex -4.544084e-17  7.500000e-01  6.092928e-01
     vertex  5.244842e-34 -6.796875e-01  1.328125e-01
     vertex -4.544084e-17 -7.500000e-01  6.092928e-01
   endloop
 endfacet
 facet normal -1.000000e+00  2.197561e-14 -6.123234e-17
   outer loop
     vertex -4.544084e-17 -7.500000e-01  6.092928e-01
     vertex  2.775049e-36 -7.492599e-01  1.328125e-01
     vertex  0.000000e+00 -7.500000e-01 -1.328125e-01
   endloop
 endfacet
 facet normal -1.000000e+00  0.000000e+00 -6.123234e-17
   outer loop
     vertex -2.175359e-18 -6.519737e-01 -4.259868e-02
     vertex  2.175359e-18 -6.519737e-01 -1.136513e-01
     vertex  0.000000e+00 -6.875000e-01 -7.812500e-02
   endloop
 endfacet
 facet normal -1.000000e+00  9.537184e-33 -6.123234e-17
   outer loop
     vertex -2.175359e-18 -6.519737e-01 -4.259868e-02
     vertex  5.328094e-34 -6.164474e-01 -7.812500e-02
     vertex  2.175359e-18 -6.519737e-01 -1.136513e-01
   endloop
 endfacet
 facet normal -1.000000e+00  7.498799e-33 -6.123234e-17
   outer loop
     vertex  5.244842e-34 -6.796875e-01  1.328125e-01
     vertex  2.775049e-36 -7.492599e-01  1.328125e-01
     vertex -2.130039e-18 -7.144737e-01  1.675987e-01
   endloop
 endfacet
 facet normal -1.000000e+00  7.498799e-33 -6.123234e-17
   outer loop
     vertex  5.244842e-34 -6.796875e-01  1.328125e-01
     vertex  2.130039e-18 -7.144737e-01  9.802632e-02
     vertex  2.775049e-36 -7.492599e-01  1.328125e-01
   endloop
 endfacet
 facet normal  1.000000e+00  0.000000e+00  6.545198e-17
   outer loop
     vertex  4.687500e-02  7.500000e-01  6.092928e-01
     vertex  4.687500e-02 -7.500000e-01 -1.328125e-01
     vertex  4.687500e-02  7.500000e-01 -1.328125e-01
   endloop
 endfacet
 facet normal  1.000000e+00  4.844420e-33  6.545198e-17
   outer loop
     vertex  4.687500e-02  7.500000e-01  6.092928e-01
     vertex  4.687500e-02 -7.500000e-01  6.092928e-01
     vertex  4.687500e-02 -7.500000e-01 -1.328125e-01
   endloop
 endfacet
endsolid
