solid 
 facet normal  9.848078e-01  1.736482e-01  0.000000e+00
   outer loop
     vertex  2.400276e-01  8.640509e-02  0.000000e+00
     vertex  2.552632e-01  0.000000e+00  7.500000e-01
     vertex  2.552632e-01  0.000000e+00  0.000000e+00
   endloop
 endfacet
 facet normal  9.848078e-01  1.736482e-01 -0.000000e+00
   outer loop
     vertex  2.400276e-01  8.640509e-02  0.000000e+00
     vertex  2.400276e-01  8.640509e-02  7.500000e-01
     vertex  2.552632e-01  0.000000e+00  7.500000e-01
   endloop
 endfacet
 facet normal  8.660254e-01  5.000000e-01 -0.000000e+00
   outer loop
     vertex  1.961586e-01  1.623884e-01  0.000000e+00
     vertex  1.961586e-01  1.623884e-01  7.500000e-01
     vertex  2.400276e-01  8.640509e-02  7.500000e-01
   endloop
 endfacet
 facet normal  8.660254e-01  5.000000e-01  0.000000e+00
   outer loop
     vertex  1.961586e-01  1.623884e-01  0.000000e+00
     vertex  2.400276e-01  8.640509e-02  7.500000e-01
     vertex  2.400276e-01  8.640509e-02  0.000000e+00
   endloop
 endfacet
 facet normal  6.427876e-01  7.660444e-01 -0.000000e+00
   outer loop
     vertex  1.289474e-01  2.187854e-01  0.000000e+00
     vertex  1.289474e-01  2.187854e-01  7.500000e-01
     vertex  1.961586e-01  1.623884e-01  7.500000e-01
   endloop
 endfacet
 facet normal  6.427876e-01  7.660444e-01  0.000000e+00
   outer loop
     vertex  1.289474e-01  2.187854e-01  0.000000e+00
     vertex  1.961586e-01  1.623884e-01  7.500000e-01
     vertex  1.961586e-01  1.623884e-01  0.000000e+00
   endloop
 endfacet
 facet normal  3.420201e-01  9.396926e-01 -0.000000e+00
   outer loop
     vertex  4.650059e-02  2.487935e-01  0.000000e+00
     vertex  4.650059e-02  2.487935e-01  7.500000e-01
     vertex  1.289474e-01  2.187854e-01  7.500000e-01
   endloop
 endfacet
 facet normal  3.420201e-01  9.396926e-01  0.000000e+00
   outer loop
     vertex  4.650059e-02  2.487935e-01  0.000000e+00
     vertex  1.289474e-01  2.187854e-01  7.500000e-01
     vertex  1.289474e-01  2.187854e-01  0.000000e+00
   endloop
 endfacet
 facet normal  0.000000e+00  1.000000e+00  0.000000e+00
   outer loop
     vertex -4.123743e-02  2.487935e-01  0.000000e+00
     vertex -4.123743e-02  2.487935e-01  7.500000e-01
     vertex  4.650059e-02  2.487935e-01  7.500000e-01
   endloop
 endfacet
 facet normal  0.000000e+00  1.000000e+00  0.000000e+00
   outer loop
     vertex -4.123743e-02  2.487935e-01  0.000000e+00
     vertex  4.650059e-02  2.487935e-01  7.500000e-01
     vertex  4.650059e-02  2.487935e-01  0.000000e+00
   endloop
 endfacet
 facet normal -3.420201e-01  9.396926e-01  0.000000e+00
   outer loop
     vertex -1.236842e-01  2.187854e-01  0.000000e+00
     vertex -1.236842e-01  2.187854e-01  7.500000e-01
     vertex -4.123743e-02  2.487935e-01  7.500000e-01
   endloop
 endfacet
 facet normal -3.420201e-01  9.396926e-01  0.000000e+00
   outer loop
     vertex -1.236842e-01  2.187854e-01  0.000000e+00
     vertex -4.123743e-02  2.487935e-01  7.500000e-01
     vertex -4.123743e-02  2.487935e-01  0.000000e+00
   endloop
 endfacet
 facet normal -6.427876e-01  7.660444e-01  0.000000e+00
   outer loop
     vertex -1.908954e-01  1.623884e-01  0.000000e+00
     vertex -1.908954e-01  1.623884e-01  7.500000e-01
     vertex -1.236842e-01  2.187854e-01  7.500000e-01
   endloop
 endfacet
 facet normal -8.660254e-01  5.000000e-01  0.000000e+00
   outer loop
     vertex -1.908954e-01  1.623884e-01  0.000000e+00
     vertex -2.347645e-01  8.640509e-02  7.500000e-01
     vertex -1.908954e-01  1.623884e-01  7.500000e-01
   endloop
 endfacet
 facet normal -6.427876e-01  7.660444e-01  0.000000e+00
   outer loop
     vertex -1.908954e-01  1.623884e-01  0.000000e+00
     vertex -1.236842e-01  2.187854e-01  7.500000e-01
     vertex -1.236842e-01  2.187854e-01  0.000000e+00
   endloop
 endfacet
 facet normal -8.660254e-01  5.000000e-01  0.000000e+00
   outer loop
     vertex -2.347645e-01  8.640509e-02  0.000000e+00
     vertex -2.347645e-01  8.640509e-02  7.500000e-01
     vertex -1.908954e-01  1.623884e-01  0.000000e+00
   endloop
 endfacet
 facet normal -9.848078e-01  1.736482e-01  0.000000e+00
   outer loop
     vertex -2.500000e-01  3.093845e-17  0.000000e+00
     vertex -2.500000e-01  3.093845e-17  7.500000e-01
     vertex -2.347645e-01  8.640509e-02  7.500000e-01
   endloop
 endfacet
 facet normal -9.848078e-01  1.736482e-01  0.000000e+00
   outer loop
     vertex -2.500000e-01  3.093845e-17  0.000000e+00
     vertex -2.347645e-01  8.640509e-02  7.500000e-01
     vertex -2.347645e-01  8.640509e-02  0.000000e+00
   endloop
 endfacet
 facet normal -9.848078e-01 -1.736482e-01  0.000000e+00
   outer loop
     vertex -2.347645e-01 -8.640509e-02  0.000000e+00
     vertex -2.347645e-01 -8.640509e-02  7.500000e-01
     vertex -2.500000e-01  3.093845e-17  7.500000e-01
   endloop
 endfacet
 facet normal -9.848078e-01 -1.736482e-01  0.000000e+00
   outer loop
     vertex -2.347645e-01 -8.640509e-02  0.000000e+00
     vertex -2.500000e-01  3.093845e-17  7.500000e-01
     vertex -2.500000e-01  3.093845e-17  0.000000e+00
   endloop
 endfacet
 facet normal -8.660254e-01 -5.000000e-01  0.000000e+00
   outer loop
     vertex -1.908954e-01 -1.623884e-01  0.000000e+00
     vertex -1.908954e-01 -1.623884e-01  7.500000e-01
     vertex -2.347645e-01 -8.640509e-02  7.500000e-01
   endloop
 endfacet
 facet normal -8.660254e-01 -5.000000e-01  0.000000e+00
   outer loop
     vertex -1.908954e-01 -1.623884e-01  0.000000e+00
     vertex -2.347645e-01 -8.640509e-02  7.500000e-01
     vertex -2.347645e-01 -8.640509e-02  0.000000e+00
   endloop
 endfacet
 facet normal -6.427876e-01 -7.660444e-01  0.000000e+00
   outer loop
     vertex -1.236842e-01 -2.187854e-01  0.000000e+00
     vertex -1.236842e-01 -2.187854e-01  7.500000e-01
     vertex -1.908954e-01 -1.623884e-01  7.500000e-01
   endloop
 endfacet
 facet normal -3.420201e-01 -9.396926e-01  0.000000e+00
   outer loop
     vertex -1.236842e-01 -2.187854e-01  0.000000e+00
     vertex -4.123743e-02 -2.487935e-01  7.500000e-01
     vertex -1.236842e-01 -2.187854e-01  7.500000e-01
   endloop
 endfacet
 facet normal -6.427876e-01 -7.660444e-01  0.000000e+00
   outer loop
     vertex -1.236842e-01 -2.187854e-01  0.000000e+00
     vertex -1.908954e-01 -1.623884e-01  7.500000e-01
     vertex -1.908954e-01 -1.623884e-01  0.000000e+00
   endloop
 endfacet
 facet normal -9.490381e-16 -1.000000e+00  0.000000e+00
   outer loop
     vertex -4.123743e-02 -2.487935e-01  0.000000e+00
     vertex  4.650059e-02 -2.487935e-01  7.500000e-01
     vertex -4.123743e-02 -2.487935e-01  7.500000e-01
   endloop
 endfacet
 facet normal -3.420201e-01 -9.396926e-01  0.000000e+00
   outer loop
     vertex -4.123743e-02 -2.487935e-01  0.000000e+00
     vertex -4.123743e-02 -2.487935e-01  7.500000e-01
     vertex -1.236842e-01 -2.187854e-01  0.000000e+00
   endloop
 endfacet
 facet normal -9.490381e-16 -1.000000e+00  0.000000e+00
   outer loop
     vertex  4.650059e-02 -2.487935e-01  0.000000e+00
     vertex  4.650059e-02 -2.487935e-01  7.500000e-01
     vertex -4.123743e-02 -2.487935e-01  0.000000e+00
   endloop
 endfacet
 facet normal  3.420201e-01 -9.396926e-01  0.000000e+00
   outer loop
     vertex  1.289474e-01 -2.187854e-01  0.000000e+00
     vertex  4.650059e-02 -2.487935e-01  7.500000e-01
     vertex  4.650059e-02 -2.487935e-01  0.000000e+00
   endloop
 endfacet
 facet normal  3.420201e-01 -9.396926e-01  0.000000e+00
   outer loop
     vertex  1.289474e-01 -2.187854e-01  0.000000e+00
     vertex  1.289474e-01 -2.187854e-01  7.500000e-01
     vertex  4.650059e-02 -2.487935e-01  7.500000e-01
   endloop
 endfacet
 facet normal  6.427876e-01 -7.660444e-01  0.000000e+00
   outer loop
     vertex  1.961586e-01 -1.623884e-01  0.000000e+00
     vertex  1.289474e-01 -2.187854e-01  7.500000e-01
     vertex  1.289474e-01 -2.187854e-01  0.000000e+00
   endloop
 endfacet
 facet normal  6.427876e-01 -7.660444e-01  0.000000e+00
   outer loop
     vertex  1.961586e-01 -1.623884e-01  0.000000e+00
     vertex  1.961586e-01 -1.623884e-01  7.500000e-01
     vertex  1.289474e-01 -2.187854e-01  7.500000e-01
   endloop
 endfacet
 facet normal  8.660254e-01 -5.000000e-01  0.000000e+00
   outer loop
     vertex  2.400276e-01 -8.640509e-02  0.000000e+00
     vertex  1.961586e-01 -1.623884e-01  7.500000e-01
     vertex  1.961586e-01 -1.623884e-01  0.000000e+00
   endloop
 endfacet
 facet normal  8.660254e-01 -5.000000e-01  0.000000e+00
   outer loop
     vertex  2.400276e-01 -8.640509e-02  0.000000e+00
     vertex  2.400276e-01 -8.640509e-02  7.500000e-01
     vertex  1.961586e-01 -1.623884e-01  7.500000e-01
   endloop
 endfacet
 facet normal  9.848078e-01 -1.736482e-01  0.000000e+00
   outer loop
     vertex  2.552632e-01  0.000000e+00  0.000000e+00
     vertex  2.400276e-01 -8.640509e-02  7.500000e-01
     vertex  2.400276e-01 -8.640509e-02  0.000000e+00
   endloop
 endfacet
 facet normal  9.848078e-01 -1.736482e-01  0.000000e+00
   outer loop
     vertex  2.552632e-01  0.000000e+00  0.000000e+00
     vertex  2.552632e-01  0.000000e+00  7.500000e-01
     vertex  2.400276e-01 -8.640509e-02  7.500000e-01
   endloop
 endfacet
 facet normal -9.396926e-01 -3.420201e-01  0.000000e+00
   outer loop
     vertex  9.939509e-02  8.119422e-02  0.000000e+00
     vertex  1.289474e-01  0.000000e+00  0.000000e+00
     vertex  1.289474e-01  0.000000e+00  7.500000e-01
   endloop
 endfacet
 facet normal -9.396926e-01 -3.420201e-01  0.000000e+00
   outer loop
     vertex  9.939509e-02  8.119422e-02  0.000000e+00
     vertex  1.289474e-01  0.000000e+00  7.500000e-01
     vertex  9.939509e-02  8.119422e-02  7.500000e-01
   endloop
 endfacet
 facet normal -5.000000e-01 -8.660254e-01  0.000000e+00
   outer loop
     vertex  2.456609e-02  1.243968e-01  0.000000e+00
     vertex  9.939509e-02  8.119422e-02  7.500000e-01
     vertex  2.456609e-02  1.243968e-01  7.500000e-01
   endloop
 endfacet
 facet normal -5.000000e-01 -8.660254e-01  0.000000e+00
   outer loop
     vertex  2.456609e-02  1.243968e-01  0.000000e+00
     vertex  9.939509e-02  8.119422e-02  0.000000e+00
     vertex  9.939509e-02  8.119422e-02  7.500000e-01
   endloop
 endfacet
 facet normal  1.736482e-01 -9.848078e-01  0.000000e+00
   outer loop
     vertex -6.052632e-02  1.093927e-01  0.000000e+00
     vertex  2.456609e-02  1.243968e-01  7.500000e-01
     vertex -6.052632e-02  1.093927e-01  7.500000e-01
   endloop
 endfacet
 facet normal  1.736482e-01 -9.848078e-01  0.000000e+00
   outer loop
     vertex -6.052632e-02  1.093927e-01  0.000000e+00
     vertex  2.456609e-02  1.243968e-01  0.000000e+00
     vertex  2.456609e-02  1.243968e-01  7.500000e-01
   endloop
 endfacet
 facet normal  7.660444e-01 -6.427876e-01  0.000000e+00
   outer loop
     vertex -1.160664e-01  4.320254e-02  0.000000e+00
     vertex -6.052632e-02  1.093927e-01  7.500000e-01
     vertex -1.160664e-01  4.320254e-02  7.500000e-01
   endloop
 endfacet
 facet normal  7.660444e-01 -6.427876e-01  0.000000e+00
   outer loop
     vertex -1.160664e-01  4.320254e-02  0.000000e+00
     vertex -6.052632e-02  1.093927e-01  0.000000e+00
     vertex -6.052632e-02  1.093927e-01  7.500000e-01
   endloop
 endfacet
 facet normal  1.000000e+00 -1.606131e-16  0.000000e+00
   outer loop
     vertex -1.160664e-01 -4.320254e-02  0.000000e+00
     vertex -1.160664e-01  4.320254e-02  7.500000e-01
     vertex -1.160664e-01 -4.320254e-02  7.500000e-01
   endloop
 endfacet
 facet normal  1.000000e+00 -1.606131e-16  0.000000e+00
   outer loop
     vertex -1.160664e-01 -4.320254e-02  0.000000e+00
     vertex -1.160664e-01  4.320254e-02  0.000000e+00
     vertex -1.160664e-01  4.320254e-02  7.500000e-01
   endloop
 endfacet
 facet normal  7.660444e-01  6.427876e-01 -0.000000e+00
   outer loop
     vertex -6.052632e-02 -1.093927e-01  0.000000e+00
     vertex -1.160664e-01 -4.320254e-02  7.500000e-01
     vertex -6.052632e-02 -1.093927e-01  7.500000e-01
   endloop
 endfacet
 facet normal  7.660444e-01  6.427876e-01  0.000000e+00
   outer loop
     vertex -6.052632e-02 -1.093927e-01  0.000000e+00
     vertex -1.160664e-01 -4.320254e-02  0.000000e+00
     vertex -1.160664e-01 -4.320254e-02  7.500000e-01
   endloop
 endfacet
 facet normal  1.736482e-01  9.848078e-01 -0.000000e+00
   outer loop
     vertex  2.456609e-02 -1.243968e-01  0.000000e+00
     vertex -6.052632e-02 -1.093927e-01  7.500000e-01
     vertex  2.456609e-02 -1.243968e-01  7.500000e-01
   endloop
 endfacet
 facet normal  1.736482e-01  9.848078e-01  0.000000e+00
   outer loop
     vertex  2.456609e-02 -1.243968e-01  0.000000e+00
     vertex -6.052632e-02 -1.093927e-01  0.000000e+00
     vertex -6.052632e-02 -1.093927e-01  7.500000e-01
   endloop
 endfacet
 facet normal -5.000000e-01  8.660254e-01  0.000000e+00
   outer loop
     vertex  9.939509e-02 -8.119422e-02  0.000000e+00
     vertex  2.456609e-02 -1.243968e-01  7.500000e-01
     vertex  9.939509e-02 -8.119422e-02  7.500000e-01
   endloop
 endfacet
 facet normal -9.396926e-01  3.420201e-01  0.000000e+00
   outer loop
     vertex  9.939509e-02 -8.119422e-02  0.000000e+00
     vertex  9.939509e-02 -8.119422e-02  7.500000e-01
     vertex  1.289474e-01  0.000000e+00  7.500000e-01
   endloop
 endfacet
 facet normal -5.000000e-01  8.660254e-01  0.000000e+00
   outer loop
     vertex  9.939509e-02 -8.119422e-02  0.000000e+00
     vertex  2.456609e-02 -1.243968e-01  0.000000e+00
     vertex  2.456609e-02 -1.243968e-01  7.500000e-01
   endloop
 endfacet
 facet normal -9.396926e-01  3.420201e-01  0.000000e+00
   outer loop
     vertex  1.289474e-01  0.000000e+00  0.000000e+00
     vertex  9.939509e-02 -8.119422e-02  0.000000e+00
     vertex  1.289474e-01  0.000000e+00  7.500000e-01
   endloop
 endfacet
 facet normal  0.000000e+00  0.000000e+00 -1.000000e+00
   outer loop
     vertex -6.052632e-02 -1.093927e-01  0.000000e+00
     vertex -1.236842e-01 -2.187854e-01  0.000000e+00
     vertex -1.908954e-01 -1.623884e-01  0.000000e+00
   endloop
 endfacet
 facet normal  0.000000e+00 -0.000000e+00 -1.000000e+00
   outer loop
     vertex -6.052632e-02 -1.093927e-01  0.000000e+00
     vertex -4.123743e-02 -2.487935e-01  0.000000e+00
     vertex -1.236842e-01 -2.187854e-01  0.000000e+00
   endloop
 endfacet
 facet normal -0.000000e+00  0.000000e+00 -1.000000e+00
   outer loop
     vertex -1.160664e-01 -4.320254e-02  0.000000e+00
     vertex -2.347645e-01 -8.640509e-02  0.000000e+00
     vertex -2.500000e-01  3.093845e-17  0.000000e+00
   endloop
 endfacet
 facet normal  0.000000e+00  0.000000e+00 -1.000000e+00
   outer loop
     vertex -1.160664e-01 -4.320254e-02  0.000000e+00
     vertex -1.908954e-01 -1.623884e-01  0.000000e+00
     vertex -2.347645e-01 -8.640509e-02  0.000000e+00
   endloop
 endfacet
 facet normal  0.000000e+00 -0.000000e+00 -1.000000e+00
   outer loop
     vertex -1.160664e-01 -4.320254e-02  0.000000e+00
     vertex -6.052632e-02 -1.093927e-01  0.000000e+00
     vertex -1.908954e-01 -1.623884e-01  0.000000e+00
   endloop
 endfacet
 facet normal  0.000000e+00 -0.000000e+00 -1.000000e+00
   outer loop
     vertex  2.456609e-02 -1.243968e-01  0.000000e+00
     vertex  4.650059e-02 -2.487935e-01  0.000000e+00
     vertex -4.123743e-02 -2.487935e-01  0.000000e+00
   endloop
 endfacet
 facet normal -0.000000e+00  0.000000e+00 -1.000000e+00
   outer loop
     vertex  2.456609e-02 -1.243968e-01  0.000000e+00
     vertex -4.123743e-02 -2.487935e-01  0.000000e+00
     vertex -6.052632e-02 -1.093927e-01  0.000000e+00
   endloop
 endfacet
 facet normal -0.000000e+00  0.000000e+00 -1.000000e+00
   outer loop
     vertex  1.289474e-01 -2.187854e-01  0.000000e+00
     vertex  4.650059e-02 -2.487935e-01  0.000000e+00
     vertex  2.456609e-02 -1.243968e-01  0.000000e+00
   endloop
 endfacet
 facet normal -0.000000e+00  0.000000e+00 -1.000000e+00
   outer loop
     vertex -1.160664e-01  4.320254e-02  0.000000e+00
     vertex -2.500000e-01  3.093845e-17  0.000000e+00
     vertex -2.347645e-01  8.640509e-02  0.000000e+00
   endloop
 endfacet
 facet normal  0.000000e+00  0.000000e+00 -1.000000e+00
   outer loop
     vertex -1.160664e-01  4.320254e-02  0.000000e+00
     vertex -1.160664e-01 -4.320254e-02  0.000000e+00
     vertex -2.500000e-01  3.093845e-17  0.000000e+00
   endloop
 endfacet
 facet normal  0.000000e+00 -0.000000e+00 -1.000000e+00
   outer loop
     vertex -1.908954e-01  1.623884e-01  0.000000e+00
     vertex -1.160664e-01  4.320254e-02  0.000000e+00
     vertex -2.347645e-01  8.640509e-02  0.000000e+00
   endloop
 endfacet
 facet normal  0.000000e+00 -0.000000e+00 -1.000000e+00
   outer loop
     vertex  9.939509e-02 -8.119422e-02  0.000000e+00
     vertex  1.289474e-01 -2.187854e-01  0.000000e+00
     vertex  2.456609e-02 -1.243968e-01  0.000000e+00
   endloop
 endfacet
 facet normal -0.000000e+00  0.000000e+00 -1.000000e+00
   outer loop
     vertex  1.961586e-01 -1.623884e-01  0.000000e+00
     vertex  1.289474e-01 -2.187854e-01  0.000000e+00
     vertex  9.939509e-02 -8.119422e-02  0.000000e+00
   endloop
 endfacet
 facet normal -0.000000e+00  0.000000e+00 -1.000000e+00
   outer loop
     vertex -6.052632e-02  1.093927e-01  0.000000e+00
     vertex -1.160664e-01  4.320254e-02  0.000000e+00
     vertex -1.908954e-01  1.623884e-01  0.000000e+00
   endloop
 endfacet
 facet normal  0.000000e+00 -0.000000e+00 -1.000000e+00
   outer loop
     vertex -1.236842e-01  2.187854e-01  0.000000e+00
     vertex -6.052632e-02  1.093927e-01  0.000000e+00
     vertex -1.908954e-01  1.623884e-01  0.000000e+00
   endloop
 endfacet
 facet normal  0.000000e+00  0.000000e+00 -1.000000e+00
   outer loop
     vertex  2.400276e-01 -8.640509e-02  0.000000e+00
     vertex  9.939509e-02 -8.119422e-02  0.000000e+00
     vertex  1.289474e-01  0.000000e+00  0.000000e+00
   endloop
 endfacet
 facet normal -0.000000e+00  0.000000e+00 -1.000000e+00
   outer loop
     vertex  2.400276e-01 -8.640509e-02  0.000000e+00
     vertex  1.961586e-01 -1.623884e-01  0.000000e+00
     vertex  9.939509e-02 -8.119422e-02  0.000000e+00
   endloop
 endfacet
 facet normal  0.000000e+00 -0.000000e+00 -1.000000e+00
   outer loop
     vertex -4.123743e-02  2.487935e-01  0.000000e+00
     vertex  2.456609e-02  1.243968e-01  0.000000e+00
     vertex -6.052632e-02  1.093927e-01  0.000000e+00
   endloop
 endfacet
 facet normal  0.000000e+00  0.000000e+00 -1.000000e+00
   outer loop
     vertex -4.123743e-02  2.487935e-01  0.000000e+00
     vertex -6.052632e-02  1.093927e-01  0.000000e+00
     vertex -1.236842e-01  2.187854e-01  0.000000e+00
   endloop
 endfacet
 facet normal -0.000000e+00  0.000000e+00 -1.000000e+00
   outer loop
     vertex  2.552632e-01  0.000000e+00  0.000000e+00
     vertex  2.400276e-01 -8.640509e-02  0.000000e+00
     vertex  1.289474e-01  0.000000e+00  0.000000e+00
   endloop
 endfacet
 facet normal -0.000000e+00  0.000000e+00 -1.000000e+00
   outer loop
     vertex  4.650059e-02  2.487935e-01  0.000000e+00
     vertex  2.456609e-02  1.243968e-01  0.000000e+00
     vertex -4.123743e-02  2.487935e-01  0.000000e+00
   endloop
 endfacet
 facet normal  0.000000e+00  0.000000e+00 -1.000000e+00
   outer loop
     vertex  2.400276e-01  8.640509e-02  0.000000e+00
     vertex  1.289474e-01  0.000000e+00  0.000000e+00
     vertex  9.939509e-02  8.119422e-02  0.000000e+00
   endloop
 endfacet
 facet normal  0.000000e+00 -0.000000e+00 -1.000000e+00
   outer loop
     vertex  2.400276e-01  8.640509e-02  0.000000e+00
     vertex  2.552632e-01  0.000000e+00  0.000000e+00
     vertex  1.289474e-01  0.000000e+00  0.000000e+00
   endloop
 endfacet
 facet normal  0.000000e+00  0.000000e+00 -1.000000e+00
   outer loop
     vertex  1.289474e-01  2.187854e-01  0.000000e+00
     vertex  9.939509e-02  8.119422e-02  0.000000e+00
     vertex  2.456609e-02  1.243968e-01  0.000000e+00
   endloop
 endfacet
 facet normal -0.000000e+00  0.000000e+00 -1.000000e+00
   outer loop
     vertex  1.289474e-01  2.187854e-01  0.000000e+00
     vertex  2.456609e-02  1.243968e-01  0.000000e+00
     vertex  4.650059e-02  2.487935e-01  0.000000e+00
   endloop
 endfacet
 facet normal -0.000000e+00  0.000000e+00 -1.000000e+00
   outer loop
     vertex  1.961586e-01  1.623884e-01  0.000000e+00
     vertex  9.939509e-02  8.119422e-02  0.000000e+00
     vertex  1.289474e-01  2.187854e-01  0.000000e+00
   endloop
 endfacet
 facet normal  0.000000e+00 -0.000000e+00 -1.000000e+00
   outer loop
     vertex  1.961586e-01  1.623884e-01  0.000000e+00
     vertex  2.400276e-01  8.640509e-02  0.000000e+00
     vertex  9.939509e-02  8.119422e-02  0.000000e+00
   endloop
 endfacet
 facet normal  0.000000e+00  0.000000e+00  1.000000e+00
   outer loop
     vertex -6.052632e-02 -1.093927e-01  7.500000e-01
     vertex -1.908954e-01 -1.623884e-01  7.500000e-01
     vertex -1.236842e-01 -2.187854e-01  7.500000e-01
   endloop
 endfacet
 facet normal  0.000000e+00  0.000000e+00  1.000000e+00
   outer loop
     vertex -6.052632e-02 -1.093927e-01  7.500000e-01
     vertex -1.236842e-01 -2.187854e-01  7.500000e-01
     vertex -4.123743e-02 -2.487935e-01  7.500000e-01
   endloop
 endfacet
 facet normal  0.000000e+00  0.000000e+00  1.000000e+00
   outer loop
     vertex -1.160664e-01 -4.320254e-02  7.500000e-01
     vertex -2.500000e-01  3.093845e-17  7.500000e-01
     vertex -2.347645e-01 -8.640509e-02  7.500000e-01
   endloop
 endfacet
 facet normal  0.000000e+00  0.000000e+00  1.000000e+00
   outer loop
     vertex -1.160664e-01 -4.320254e-02  7.500000e-01
     vertex -2.347645e-01 -8.640509e-02  7.500000e-01
     vertex -1.908954e-01 -1.623884e-01  7.500000e-01
   endloop
 endfacet
 facet normal  0.000000e+00  0.000000e+00  1.000000e+00
   outer loop
     vertex -1.160664e-01 -4.320254e-02  7.500000e-01
     vertex -1.908954e-01 -1.623884e-01  7.500000e-01
     vertex -6.052632e-02 -1.093927e-01  7.500000e-01
   endloop
 endfacet
 facet normal  0.000000e+00  0.000000e+00  1.000000e+00
   outer loop
     vertex  2.456609e-02 -1.243968e-01  7.500000e-01
     vertex -4.123743e-02 -2.487935e-01  7.500000e-01
     vertex  4.650059e-02 -2.487935e-01  7.500000e-01
   endloop
 endfacet
 facet normal  0.000000e+00  0.000000e+00  1.000000e+00
   outer loop
     vertex  2.456609e-02 -1.243968e-01  7.500000e-01
     vertex -6.052632e-02 -1.093927e-01  7.500000e-01
     vertex -4.123743e-02 -2.487935e-01  7.500000e-01
   endloop
 endfacet
 facet normal  0.000000e+00  0.000000e+00  1.000000e+00
   outer loop
     vertex  1.289474e-01 -2.187854e-01  7.500000e-01
     vertex  2.456609e-02 -1.243968e-01  7.500000e-01
     vertex  4.650059e-02 -2.487935e-01  7.500000e-01
   endloop
 endfacet
 facet normal  0.000000e+00  0.000000e+00  1.000000e+00
   outer loop
     vertex -1.160664e-01  4.320254e-02  7.500000e-01
     vertex -2.347645e-01  8.640509e-02  7.500000e-01
     vertex -2.500000e-01  3.093845e-17  7.500000e-01
   endloop
 endfacet
 facet normal  0.000000e+00  0.000000e+00  1.000000e+00
   outer loop
     vertex -1.160664e-01  4.320254e-02  7.500000e-01
     vertex -2.500000e-01  3.093845e-17  7.500000e-01
     vertex -1.160664e-01 -4.320254e-02  7.500000e-01
   endloop
 endfacet
 facet normal  0.000000e+00  0.000000e+00  1.000000e+00
   outer loop
     vertex -1.908954e-01  1.623884e-01  7.500000e-01
     vertex -2.347645e-01  8.640509e-02  7.500000e-01
     vertex -1.160664e-01  4.320254e-02  7.500000e-01
   endloop
 endfacet
 facet normal  0.000000e+00  0.000000e+00  1.000000e+00
   outer loop
     vertex  9.939509e-02 -8.119422e-02  7.500000e-01
     vertex  2.456609e-02 -1.243968e-01  7.500000e-01
     vertex  1.289474e-01 -2.187854e-01  7.500000e-01
   endloop
 endfacet
 facet normal  0.000000e+00  0.000000e+00  1.000000e+00
   outer loop
     vertex  1.961586e-01 -1.623884e-01  7.500000e-01
     vertex  9.939509e-02 -8.119422e-02  7.500000e-01
     vertex  1.289474e-01 -2.187854e-01  7.500000e-01
   endloop
 endfacet
 facet normal  0.000000e+00  0.000000e+00  1.000000e+00
   outer loop
     vertex -6.052632e-02  1.093927e-01  7.500000e-01
     vertex -1.908954e-01  1.623884e-01  7.500000e-01
     vertex -1.160664e-01  4.320254e-02  7.500000e-01
   endloop
 endfacet
 facet normal  0.000000e+00  0.000000e+00  1.000000e+00
   outer loop
     vertex -1.236842e-01  2.187854e-01  7.500000e-01
     vertex -1.908954e-01  1.623884e-01  7.500000e-01
     vertex -6.052632e-02  1.093927e-01  7.500000e-01
   endloop
 endfacet
 facet normal  0.000000e+00  0.000000e+00  1.000000e+00
   outer loop
     vertex  2.400276e-01 -8.640509e-02  7.500000e-01
     vertex  1.289474e-01  0.000000e+00  7.500000e-01
     vertex  9.939509e-02 -8.119422e-02  7.500000e-01
   endloop
 endfacet
 facet normal  0.000000e+00  0.000000e+00  1.000000e+00
   outer loop
     vertex  2.400276e-01 -8.640509e-02  7.500000e-01
     vertex  9.939509e-02 -8.119422e-02  7.500000e-01
     vertex  1.961586e-01 -1.623884e-01  7.500000e-01
   endloop
 endfacet
 facet normal  0.000000e+00  0.000000e+00  1.000000e+00
   outer loop
     vertex -4.123743e-02  2.487935e-01  7.500000e-01
     vertex -6.052632e-02  1.093927e-01  7.500000e-01
     vertex  2.456609e-02  1.243968e-01  7.500000e-01
   endloop
 endfacet
 facet normal  0.000000e+00  0.000000e+00  1.000000e+00
   outer loop
     vertex -4.123743e-02  2.487935e-01  7.500000e-01
     vertex -1.236842e-01  2.187854e-01  7.500000e-01
     vertex -6.052632e-02  1.093927e-01  7.500000e-01
   endloop
 endfacet
 facet normal  0.000000e+00  0.000000e+00  1.000000e+00
   outer loop
     vertex  2.552632e-01  0.000000e+00  7.500000e-01
     vertex  1.289474e-01  0.000000e+00  7.500000e-01
     vertex  2.400276e-01 -8.640509e-02  7.500000e-01
   endloop
 endfacet
 facet normal  0.000000e+00  0.000000e+00  1.000000e+00
   outer loop
     vertex  4.650059e-02  2.487935e-01  7.500000e-01
     vertex -4.123743e-02  2.487935e-01  7.500000e-01
     vertex  2.456609e-02  1.243968e-01  7.500000e-01
   endloop
 endfacet
 facet normal  0.000000e+00  0.000000e+00  1.000000e+00
   outer loop
     vertex  2.400276e-01  8.640509e-02  7.500000e-01
     vertex  9.939509e-02  8.119422e-02  7.500000e-01
     vertex  1.289474e-01  0.000000e+00  7.500000e-01
   endloop
 endfacet
 facet normal  0.000000e+00  0.000000e+00  1.000000e+00
   outer loop
     vertex  2.400276e-01  8.640509e-02  7.500000e-01
     vertex  1.289474e-01  0.000000e+00  7.500000e-01
     vertex  2.552632e-01  0.000000e+00  7.500000e-01
   endloop
 endfacet
 facet normal  0.000000e+00  0.000000e+00  1.000000e+00
   outer loop
     vertex  1.289474e-01  2.187854e-01  7.500000e-01
     vertex  2.456609e-02  1.243968e-01  7.500000e-01
     vertex  9.939509e-02  8.119422e-02  7.500000e-01
   endloop
 endfacet
 facet normal  0.000000e+00  0.000000e+00  1.000000e+00
   outer loop
     vertex  1.289474e-01  2.187854e-01  7.500000e-01
     vertex  4.650059e-02  2.487935e-01  7.500000e-01
     vertex  2.456609e-02  1.243968e-01  7.500000e-01
   endloop
 endfacet
 facet normal  0.000000e+00  0.000000e+00  1.000000e+00
   outer loop
     vertex  1.961586e-01  1.623884e-01  7.500000e-01
     vertex  1.289474e-01  2.187854e-01  7.500000e-01
     vertex  9.939509e-02  8.119422e-02  7.500000e-01
   endloop
 endfacet
 facet normal  0.000000e+00  0.000000e+00  1.000000e+00
   outer loop
     vertex  1.961586e-01  1.623884e-01  7.500000e-01
     vertex  9.939509e-02  8.119422e-02  7.500000e-01
     vertex  2.400276e-01  8.640509e-02  7.500000e-01
   endloop
 endfacet
endsolid
