solid 
 facet normal  9.848078e-01  1.736482e-01  0.000000e+00
   outer loop
     vertex  2.400276e-01  8.640509e-02  0.000000e+00
     vertex  2.552632e-01  0.000000e+00  7.500000e-01
     vertex  2.552632e-01  0.000000e+00  0.000000e+00
   endloop
 endfacet
 facet normal  9.848078e-01  1.736482e-01 -0.000000e+00
   outer loop
     vertex  2.400276e-01  8.640509e-02  0.000000e+00
     vertex  2.400276e-01  8.640509e-02  7.500000e-01
     vertex  2.552632e-01  0.000000e+00  7.500000e-01
   endloop
 endfacet
 facet normal  8.660254e-01  5.000000e-01 -0.000000e+00
   outer loop
     vertex  1.961586e-01  1.623884e-01  0.000000e+00
     vertex  1.961586e-01  1.623884e-01  7.500000e-01
     vertex  2.400276e-01  8.640509e-02  7.500000e-01
   endloop
 endfacet
 facet normal  8.660254e-01  5.000000e-01  0.000000e+00
   outer loop
     vertex  1.961586e-01  1.623884e-01  0.000000e+00
     vertex  2.400276e-01  8.640509e-02  7.500000e-01
     vertex  2.400276e-01  8.640509e-02  0.000000e+00
   endloop
 endfacet
 facet normal  6.427876e-01  7.660444e-01 -0.000000e+00
   outer loop
     vertex  1.289474e-01  2.187854e-01  0.000000e+00
     vertex  1.289474e-01  2.187854e-01  7.500000e-01
     vertex  1.961586e-01  1.623884e-01  7.500000e-01
   endloop
 endfacet
 facet normal  6.427876e-01  7.660444e-01  0.000000e+00
   outer loop
     vertex  1.289474e-01  2.187854e-01  0.000000e+00
     vertex  1.961586e-01  1.623884e-01  7.500000e-01
     vertex  1.961586e-01  1.623884e-01  0.000000e+00
   endloop
 endfacet
 facet normal  3.420201e-01  9.396926e-01 -0.000000e+00
   outer loop
     vertex  4.650059e-02  2.487935e-01  0.000000e+00
     vertex  4.650059e-02  2.487935e-01  7.500000e-01
     vertex  1.289474e-01  2.187854e-01  7.500000e-01
   endloop
 endfacet
 facet normal  3.420201e-01  9.396926e-01  0.000000e+00
   outer loop
     vertex  4.650059e-02  2.487935e-01  0.000000e+00
     vertex  1.289474e-01  2.187854e-01  7.500000e-01
     vertex  1.289474e-01  2.187854e-01  0.000000e+00
   endloop
 endfacet
 facet normal  0.000000e+00  1.000000e+00  0.000000e+00
   outer loop
     vertex -4.123743e-02  2.487935e-01  0.000000e+00
     vertex -4.123743e-02  2.487935e-01  7.500000e-01
     vertex  4.650059e-02  2.487935e-01  7.500000e-01
   endloop
 endfacet
 facet normal  0.000000e+00  1.000000e+00  0.000000e+00
   outer loop
     vertex -4.123743e-02  2.487935e-01  0.000000e+00
     vertex  4.650059e-02  2.487935e-01  7.500000e-01
     vertex  4.650059e-02  2.487935e-01  0.000000e+00
   endloop
 endfacet
 facet normal -3.420201e-01  9.396926e-01  0.000000e+00
   outer loop
     vertex -1.236842e-01  2.187854e-01  0.000000e+00
     vertex -1.236842e-01  2.187854e-01  7.500000e-01
     vertex -4.123743e-02  2.487935e-01  7.500000e-01
   endloop
 endfacet
 facet normal -3.420201e-01  9.396926e-01  0.000000e+00
   outer loop
     vertex -1.236842e-01  2.187854e-01  0.000000e+00
     vertex -4.123743e-02  2.487935e-01  7.500000e-01
     vertex -4.123743e-02  2.487935e-01  0.000000e+00
   endloop
 endfacet
 facet normal -6.427876e-01  7.660444e-01  0.000000e+00
   outer loop
     vertex -1.908954e-01  1.623884e-01  0.000000e+00
     vertex -1.908954e-01  1.623884e-01  7.500000e-01
     vertex -1.236842e-01  2.187854e-01  7.500000e-01
   endloop
 endfacet
 facet normal -8.660254e-01  5.000000e-01  0.000000e+00
   outer loop
     vertex -1.908954e-01  1.623884e-01  0.000000e+00
     vertex -2.347645e-01  8.640509e-02  7.500000e-01
     vertex -1.908954e-01  1.623884e-01  7.500000e-01
   endloop
 endfacet
 facet normal -6.427876e-01  7.660444e-01  0.000000e+00
   outer loop
     vertex -1.908954e-01  1.623884e-01  0.000000e+00
     vertex -1.236842e-01  2.187854e-01  7.500000e-01
     vertex -1.236842e-01  2.187854e-01  0.000000e+00
   endloop
 endfacet
 facet normal -8.660254e-01  5.000000e-01  0.000000e+00
   outer loop
     vertex -2.347645e-01  8.640509e-02  0.000000e+00
     vertex -2.347645e-01  8.640509e-02  7.500000e-01
     vertex -1.908954e-01  1.623884e-01  0.000000e+00
   endloop
 endfacet
 facet normal -9.848078e-01  1.736482e-01  0.000000e+00
   outer loop
     vertex -2.500000e-01  3.093845e-17  0.000000e+00
     vertex -2.500000e-01  3.093845e-17  7.500000e-01
     vertex -2.347645e-01  8.640509e-02  7.500000e-01
   endloop
 endfacet
 facet normal -9.848078e-01  1.736482e-01  0.000000e+00
   outer loop
     vertex -2.500000e-01  3.093845e-17  0.000000e+00
     vertex -2.347645e-01  8.640509e-02  7.500000e-01
     vertex -2.347645e-01  8.640509e-02  0.000000e+00
   endloop
 endfacet
 facet normal -9.848078e-01 -1.736482e-01  0.000000e+00
   outer loop
     vertex -2.347645e-01 -8.640509e-02  0.000000e+00
     vertex -2.347645e-01 -8.640509e-02  7.500000e-01
     vertex -2.500000e-01  3.093845e-17  7.500000e-01
   endloop
 endfacet
 facet normal -9.848078e-01 -1.736482e-01  0.000000e+00
   outer loop
     vertex -2.347645e-01 -8.640509e-02  0.000000e+00
     vertex -2.500000e-01  3.093845e-17  7.500000e-01
     vertex -2.500000e-01  3.093845e-17  0.000000e+00
   endloop
 endfacet
 facet normal -8.660254e-01 -5.000000e-01  0.000000e+00
   outer loop
     vertex -1.908954e-01 -1.623884e-01  0.000000e+00
     vertex -1.908954e-01 -1.623884e-01  7.500000e-01
     vertex -2.347645e-01 -8.640509e-02  7.500000e-01
   endloop
 endfacet
 facet normal -8.660254e-01 -5.000000e-01  0.000000e+00
   outer loop
     vertex -1.908954e-01 -1.623884e-01  0.000000e+00
     vertex -2.347645e-01 -8.640509e-02  7.500000e-01
     vertex -2.347645e-01 -8.640509e-02  0.000000e+00
   endloop
 endfacet
 facet normal -6.427876e-01 -7.660444e-01  0.000000e+00
   outer loop
     vertex -1.236842e-01 -2.187854e-01  0.000000e+00
     vertex -1.236842e-01 -2.187854e-01  7.500000e-01
     vertex -1.908954e-01 -1.623884e-01  7.500000e-01
   endloop
 endfacet
 facet normal -3.420201e-01 -9.396926e-01  0.000000e+00
   outer loop
     vertex -1.236842e-01 -2.187854e-01  0.000000e+00
     vertex -4.123743e-02 -2.487935e-01  7.500000e-01
     vertex -1.236842e-01 -2.187854e-01  7.500000e-01
   endloop
 endfacet
 facet normal -6.427876e-01 -7.660444e-01  0.000000e+00
   outer loop
     vertex -1.236842e-01 -2.187854e-01  0.000000e+00
     vertex -1.908954e-01 -1.623884e-01  7.500000e-01
     vertex -1.908954e-01 -1.623884e-01  0.000000e+00
   endloop
 endfacet
 facet normal -9.490381e-16 -1.000000e+00  0.000000e+00
   outer loop
     vertex -4.123743e-02 -2.487935e-01  0.000000e+00
     vertex  4.650059e-02 -2.487935e-01  7.500000e-01
     vertex -4.123743e-02 -2.487935e-01  7.500000e-01
   endloop
 endfacet
 facet normal -3.420201e-01 -9.396926e-01  0.000000e+00
   outer loop
     vertex -4.123743e-02 -2.487935e-01  0.000000e+00
     vertex -4.123743e-02 -2.487935e-01  7.500000e-01
     vertex -1.236842e-01 -2.187854e-01  0.000000e+00
   endloop
 endfacet
 facet normal -9.490381e-16 -1.000000e+00  0.000000e+00
   outer loop
     vertex  4.650059e-02 -2.487935e-01  0.000000e+00
     vertex  4.650059e-02 -2.487935e-01  7.500000e-01
     vertex -4.123743e-02 -2.487935e-01  0.000000e+00
   endloop
 endfacet
 facet normal  3.420201e-01 -9.396926e-01  0.000000e+00
   outer loop
     vertex  1.289474e-01 -2.187854e-01  0.000000e+00
     vertex  4.650059e-02 -2.487935e-01  7.500000e-01
     vertex  4.650059e-02 -2.487935e-01  0.000000e+00
   endloop
 endfacet
 facet normal  3.420201e-01 -9.396926e-01  0.000000e+00
   outer loop
     vertex  1.289474e-01 -2.187854e-01  0.000000e+00
     vertex  1.289474e-01 -2.187854e-01  7.500000e-01
     vertex  4.650059e-02 -2.487935e-01  7.500000e-01
   endloop
 endfacet
 facet normal  6.427876e-01 -7.660444e-01  0.000000e+00
   outer loop
     vertex  1.961586e-01 -1.623884e-01  0.000000e+00
     vertex  1.289474e-01 -2.187854e-01  7.500000e-01
     vertex  1.289474e-01 -2.187854e-01  0.000000e+00
   endloop
 endfacet
 facet normal  6.427876e-01 -7.660444e-01  0.000000e+00
   outer loop
     vertex  1.961586e-01 -1.623884e-01  0.000000e+00
     vertex  1.961586e-01 -1.623884e-01  7.500000e-01
     vertex  1.289474e-01 -2.187854e-01  7.500000e-01
   endloop
 endfacet
 facet normal  8.660254e-01 -5.000000e-01  0.000000e+00
   outer loop
     vertex  2.400276e-01 -8.640509e-02  0.000000e+00
     vertex  1.961586e-01 -1.623884e-01  7.500000e-01
     vertex  1.961586e-01 -1.623884e-01  0.000000e+00
   endloop
 endfacet
 facet normal  8.660254e-01 -5.000000e-01  0.000000e+00
   outer loop
     vertex  2.400276e-01 -8.640509e-02  0.000000e+00
     vertex  2.400276e-01 -8.640509e-02  7.500000e-01
     vertex  1.961586e-01 -1.623884e-01  7.500000e-01
   endloop
 endfacet
 facet normal  9.848078e-01 -1.736482e-01  0.000000e+00
   outer loop
     vertex  2.552632e-01  0.000000e+00  0.000000e+00
     vertex  2.400276e-01 -8.640509e-02  7.500000e-01
     vertex  2.400276e-01 -8.640509e-02  0.000000e+00
   endloop
 endfacet
 facet normal  9.848078e-01 -1.736482e-01  0.000000e+00
   outer loop
     vertex  2.552632e-01  0.000000e+00  0.000000e+00
     vertex  2.552632e-01  0.000000e+00  7.500000e-01
     vertex  2.400276e-01 -8.640509e-02  7.500000e-01
   endloop
 endfacet
 facet normal -9.009689e-01 -4.338837e-01  0.000000e+00
   outer loop
     vertex  6.169903e-02  7.406825e-02  0.000000e+00
     vertex  9.736842e-02  0.000000e+00  0.000000e+00
     vertex  9.736842e-02  0.000000e+00  7.500000e-01
   endloop
 endfacet
 facet normal -9.009689e-01 -4.338837e-01  0.000000e+00
   outer loop
     vertex  6.169903e-02  7.406825e-02  0.000000e+00
     vertex  9.736842e-02  0.000000e+00  7.500000e-01
     vertex  6.169903e-02  7.406825e-02  7.500000e-01
   endloop
 endfacet
 facet normal -2.225209e-01 -9.749279e-01  0.000000e+00
   outer loop
     vertex -1.844935e-02  9.236159e-02  0.000000e+00
     vertex  6.169903e-02  7.406825e-02  7.500000e-01
     vertex -1.844935e-02  9.236159e-02  7.500000e-01
   endloop
 endfacet
 facet normal -2.225209e-01 -9.749279e-01  0.000000e+00
   outer loop
     vertex -1.844935e-02  9.236159e-02  0.000000e+00
     vertex  6.169903e-02  7.406825e-02  0.000000e+00
     vertex  6.169903e-02  7.406825e-02  7.500000e-01
   endloop
 endfacet
 facet normal  6.234898e-01 -7.818315e-01  0.000000e+00
   outer loop
     vertex -8.272337e-02  4.110478e-02  0.000000e+00
     vertex -1.844935e-02  9.236159e-02  7.500000e-01
     vertex -8.272337e-02  4.110478e-02  7.500000e-01
   endloop
 endfacet
 facet normal  6.234898e-01 -7.818315e-01  0.000000e+00
   outer loop
     vertex -8.272337e-02  4.110478e-02  0.000000e+00
     vertex -1.844935e-02  9.236159e-02  0.000000e+00
     vertex -1.844935e-02  9.236159e-02  7.500000e-01
   endloop
 endfacet
 facet normal  1.000000e+00 -1.688099e-16  0.000000e+00
   outer loop
     vertex -8.272337e-02 -4.110478e-02  0.000000e+00
     vertex -8.272337e-02  4.110478e-02  7.500000e-01
     vertex -8.272337e-02 -4.110478e-02  7.500000e-01
   endloop
 endfacet
 facet normal  1.000000e+00 -1.688099e-16  0.000000e+00
   outer loop
     vertex -8.272337e-02 -4.110478e-02  0.000000e+00
     vertex -8.272337e-02  4.110478e-02  0.000000e+00
     vertex -8.272337e-02  4.110478e-02  7.500000e-01
   endloop
 endfacet
 facet normal  6.234898e-01  7.818315e-01 -0.000000e+00
   outer loop
     vertex -1.844935e-02 -9.236159e-02  0.000000e+00
     vertex -8.272337e-02 -4.110478e-02  7.500000e-01
     vertex -1.844935e-02 -9.236159e-02  7.500000e-01
   endloop
 endfacet
 facet normal  6.234898e-01  7.818315e-01  0.000000e+00
   outer loop
     vertex -1.844935e-02 -9.236159e-02  0.000000e+00
     vertex -8.272337e-02 -4.110478e-02  0.000000e+00
     vertex -8.272337e-02 -4.110478e-02  7.500000e-01
   endloop
 endfacet
 facet normal -2.225209e-01  9.749279e-01  0.000000e+00
   outer loop
     vertex  6.169903e-02 -7.406825e-02  0.000000e+00
     vertex -1.844935e-02 -9.236159e-02  7.500000e-01
     vertex  6.169903e-02 -7.406825e-02  7.500000e-01
   endloop
 endfacet
 facet normal -2.225209e-01  9.749279e-01  0.000000e+00
   outer loop
     vertex  6.169903e-02 -7.406825e-02  0.000000e+00
     vertex -1.844935e-02 -9.236159e-02  0.000000e+00
     vertex -1.844935e-02 -9.236159e-02  7.500000e-01
   endloop
 endfacet
 facet normal -9.009689e-01  4.338837e-01  0.000000e+00
   outer loop
     vertex  9.736842e-02  0.000000e+00  0.000000e+00
     vertex  6.169903e-02 -7.406825e-02  7.500000e-01
     vertex  9.736842e-02  0.000000e+00  7.500000e-01
   endloop
 endfacet
 facet normal -9.009689e-01  4.338837e-01  0.000000e+00
   outer loop
     vertex  9.736842e-02  0.000000e+00  0.000000e+00
     vertex  6.169903e-02 -7.406825e-02  0.000000e+00
     vertex  6.169903e-02 -7.406825e-02  7.500000e-01
   endloop
 endfacet
 facet normal -0.000000e+00  0.000000e+00 -1.000000e+00
   outer loop
     vertex -8.272337e-02 -4.110478e-02  0.000000e+00
     vertex -2.347645e-01 -8.640509e-02  0.000000e+00
     vertex -2.500000e-01  3.093845e-17  0.000000e+00
   endloop
 endfacet
 facet normal  0.000000e+00  0.000000e+00 -1.000000e+00
   outer loop
     vertex -8.272337e-02 -4.110478e-02  0.000000e+00
     vertex -1.908954e-01 -1.623884e-01  0.000000e+00
     vertex -2.347645e-01 -8.640509e-02  0.000000e+00
   endloop
 endfacet
 facet normal  0.000000e+00  0.000000e+00 -1.000000e+00
   outer loop
     vertex -8.272337e-02 -4.110478e-02  0.000000e+00
     vertex -1.236842e-01 -2.187854e-01  0.000000e+00
     vertex -1.908954e-01 -1.623884e-01  0.000000e+00
   endloop
 endfacet
 facet normal  0.000000e+00  0.000000e+00 -1.000000e+00
   outer loop
     vertex -1.844935e-02 -9.236159e-02  0.000000e+00
     vertex -4.123743e-02 -2.487935e-01  0.000000e+00
     vertex -1.236842e-01 -2.187854e-01  0.000000e+00
   endloop
 endfacet
 facet normal  0.000000e+00 -0.000000e+00 -1.000000e+00
   outer loop
     vertex -1.844935e-02 -9.236159e-02  0.000000e+00
     vertex  4.650059e-02 -2.487935e-01  0.000000e+00
     vertex -4.123743e-02 -2.487935e-01  0.000000e+00
   endloop
 endfacet
 facet normal -0.000000e+00  0.000000e+00 -1.000000e+00
   outer loop
     vertex -1.844935e-02 -9.236159e-02  0.000000e+00
     vertex -1.236842e-01 -2.187854e-01  0.000000e+00
     vertex -8.272337e-02 -4.110478e-02  0.000000e+00
   endloop
 endfacet
 facet normal -0.000000e+00  0.000000e+00 -1.000000e+00
   outer loop
     vertex -8.272337e-02  4.110478e-02  0.000000e+00
     vertex -2.500000e-01  3.093845e-17  0.000000e+00
     vertex -2.347645e-01  8.640509e-02  0.000000e+00
   endloop
 endfacet
 facet normal  0.000000e+00  0.000000e+00 -1.000000e+00
   outer loop
     vertex -8.272337e-02  4.110478e-02  0.000000e+00
     vertex -8.272337e-02 -4.110478e-02  0.000000e+00
     vertex -2.500000e-01  3.093845e-17  0.000000e+00
   endloop
 endfacet
 facet normal  0.000000e+00 -0.000000e+00 -1.000000e+00
   outer loop
     vertex -1.908954e-01  1.623884e-01  0.000000e+00
     vertex -8.272337e-02  4.110478e-02  0.000000e+00
     vertex -2.347645e-01  8.640509e-02  0.000000e+00
   endloop
 endfacet
 facet normal  0.000000e+00 -0.000000e+00 -1.000000e+00
   outer loop
     vertex  6.169903e-02 -7.406825e-02  0.000000e+00
     vertex  1.289474e-01 -2.187854e-01  0.000000e+00
     vertex  4.650059e-02 -2.487935e-01  0.000000e+00
   endloop
 endfacet
 facet normal  0.000000e+00  0.000000e+00 -1.000000e+00
   outer loop
     vertex  6.169903e-02 -7.406825e-02  0.000000e+00
     vertex  4.650059e-02 -2.487935e-01  0.000000e+00
     vertex -1.844935e-02 -9.236159e-02  0.000000e+00
   endloop
 endfacet
 facet normal -0.000000e+00  0.000000e+00 -1.000000e+00
   outer loop
     vertex  1.961586e-01 -1.623884e-01  0.000000e+00
     vertex  1.289474e-01 -2.187854e-01  0.000000e+00
     vertex  6.169903e-02 -7.406825e-02  0.000000e+00
   endloop
 endfacet
 facet normal  0.000000e+00  0.000000e+00 -1.000000e+00
   outer loop
     vertex -1.236842e-01  2.187854e-01  0.000000e+00
     vertex -1.844935e-02  9.236159e-02  0.000000e+00
     vertex -8.272337e-02  4.110478e-02  0.000000e+00
   endloop
 endfacet
 facet normal  0.000000e+00 -0.000000e+00 -1.000000e+00
   outer loop
     vertex -1.236842e-01  2.187854e-01  0.000000e+00
     vertex -8.272337e-02  4.110478e-02  0.000000e+00
     vertex -1.908954e-01  1.623884e-01  0.000000e+00
   endloop
 endfacet
 facet normal  0.000000e+00  0.000000e+00 -1.000000e+00
   outer loop
     vertex  2.400276e-01 -8.640509e-02  0.000000e+00
     vertex  6.169903e-02 -7.406825e-02  0.000000e+00
     vertex  9.736842e-02  0.000000e+00  0.000000e+00
   endloop
 endfacet
 facet normal -0.000000e+00  0.000000e+00 -1.000000e+00
   outer loop
     vertex  2.400276e-01 -8.640509e-02  0.000000e+00
     vertex  1.961586e-01 -1.623884e-01  0.000000e+00
     vertex  6.169903e-02 -7.406825e-02  0.000000e+00
   endloop
 endfacet
 facet normal  0.000000e+00 -0.000000e+00 -1.000000e+00
   outer loop
     vertex -4.123743e-02  2.487935e-01  0.000000e+00
     vertex -1.844935e-02  9.236159e-02  0.000000e+00
     vertex -1.236842e-01  2.187854e-01  0.000000e+00
   endloop
 endfacet
 facet normal -0.000000e+00  0.000000e+00 -1.000000e+00
   outer loop
     vertex  2.552632e-01  0.000000e+00  0.000000e+00
     vertex  2.400276e-01 -8.640509e-02  0.000000e+00
     vertex  9.736842e-02  0.000000e+00  0.000000e+00
   endloop
 endfacet
 facet normal  0.000000e+00 -0.000000e+00 -1.000000e+00
   outer loop
     vertex  4.650059e-02  2.487935e-01  0.000000e+00
     vertex  6.169903e-02  7.406825e-02  0.000000e+00
     vertex -1.844935e-02  9.236159e-02  0.000000e+00
   endloop
 endfacet
 facet normal -0.000000e+00  0.000000e+00 -1.000000e+00
   outer loop
     vertex  4.650059e-02  2.487935e-01  0.000000e+00
     vertex -1.844935e-02  9.236159e-02  0.000000e+00
     vertex -4.123743e-02  2.487935e-01  0.000000e+00
   endloop
 endfacet
 facet normal  0.000000e+00  0.000000e+00 -1.000000e+00
   outer loop
     vertex  2.400276e-01  8.640509e-02  0.000000e+00
     vertex  9.736842e-02  0.000000e+00  0.000000e+00
     vertex  6.169903e-02  7.406825e-02  0.000000e+00
   endloop
 endfacet
 facet normal  0.000000e+00 -0.000000e+00 -1.000000e+00
   outer loop
     vertex  2.400276e-01  8.640509e-02  0.000000e+00
     vertex  2.552632e-01  0.000000e+00  0.000000e+00
     vertex  9.736842e-02  0.000000e+00  0.000000e+00
   endloop
 endfacet
 facet normal -0.000000e+00  0.000000e+00 -1.000000e+00
   outer loop
     vertex  1.289474e-01  2.187854e-01  0.000000e+00
     vertex  6.169903e-02  7.406825e-02  0.000000e+00
     vertex  4.650059e-02  2.487935e-01  0.000000e+00
   endloop
 endfacet
 facet normal  0.000000e+00 -0.000000e+00 -1.000000e+00
   outer loop
     vertex  1.961586e-01  1.623884e-01  0.000000e+00
     vertex  2.400276e-01  8.640509e-02  0.000000e+00
     vertex  6.169903e-02  7.406825e-02  0.000000e+00
   endloop
 endfacet
 facet normal -0.000000e+00  0.000000e+00 -1.000000e+00
   outer loop
     vertex  1.961586e-01  1.623884e-01  0.000000e+00
     vertex  6.169903e-02  7.406825e-02  0.000000e+00
     vertex  1.289474e-01  2.187854e-01  0.000000e+00
   endloop
 endfacet
 facet normal  0.000000e+00  0.000000e+00  1.000000e+00
   outer loop
     vertex -8.272337e-02 -4.110478e-02  7.500000e-01
     vertex -2.500000e-01  3.093845e-17  7.500000e-01
     vertex -2.347645e-01 -8.640509e-02  7.500000e-01
   endloop
 endfacet
 facet normal  0.000000e+00  0.000000e+00  1.000000e+00
   outer loop
     vertex -8.272337e-02 -4.110478e-02  7.500000e-01
     vertex -2.347645e-01 -8.640509e-02  7.500000e-01
     vertex -1.908954e-01 -1.623884e-01  7.500000e-01
   endloop
 endfacet
 facet normal  0.000000e+00  0.000000e+00  1.000000e+00
   outer loop
     vertex -8.272337e-02 -4.110478e-02  7.500000e-01
     vertex -1.908954e-01 -1.623884e-01  7.500000e-01
     vertex -1.236842e-01 -2.187854e-01  7.500000e-01
   endloop
 endfacet
 facet normal  0.000000e+00  0.000000e+00  1.000000e+00
   outer loop
     vertex -1.844935e-02 -9.236159e-02  7.500000e-01
     vertex -1.236842e-01 -2.187854e-01  7.500000e-01
     vertex -4.123743e-02 -2.487935e-01  7.500000e-01
   endloop
 endfacet
 facet normal  0.000000e+00  0.000000e+00  1.000000e+00
   outer loop
     vertex -1.844935e-02 -9.236159e-02  7.500000e-01
     vertex -4.123743e-02 -2.487935e-01  7.500000e-01
     vertex  4.650059e-02 -2.487935e-01  7.500000e-01
   endloop
 endfacet
 facet normal  0.000000e+00  0.000000e+00  1.000000e+00
   outer loop
     vertex -1.844935e-02 -9.236159e-02  7.500000e-01
     vertex -8.272337e-02 -4.110478e-02  7.500000e-01
     vertex -1.236842e-01 -2.187854e-01  7.500000e-01
   endloop
 endfacet
 facet normal  0.000000e+00  0.000000e+00  1.000000e+00
   outer loop
     vertex -8.272337e-02  4.110478e-02  7.500000e-01
     vertex -2.347645e-01  8.640509e-02  7.500000e-01
     vertex -2.500000e-01  3.093845e-17  7.500000e-01
   endloop
 endfacet
 facet normal  0.000000e+00  0.000000e+00  1.000000e+00
   outer loop
     vertex -8.272337e-02  4.110478e-02  7.500000e-01
     vertex -2.500000e-01  3.093845e-17  7.500000e-01
     vertex -8.272337e-02 -4.110478e-02  7.500000e-01
   endloop
 endfacet
 facet normal  0.000000e+00  0.000000e+00  1.000000e+00
   outer loop
     vertex -1.908954e-01  1.623884e-01  7.500000e-01
     vertex -2.347645e-01  8.640509e-02  7.500000e-01
     vertex -8.272337e-02  4.110478e-02  7.500000e-01
   endloop
 endfacet
 facet normal  0.000000e+00  0.000000e+00  1.000000e+00
   outer loop
     vertex  6.169903e-02 -7.406825e-02  7.500000e-01
     vertex  4.650059e-02 -2.487935e-01  7.500000e-01
     vertex  1.289474e-01 -2.187854e-01  7.500000e-01
   endloop
 endfacet
 facet normal  0.000000e+00  0.000000e+00  1.000000e+00
   outer loop
     vertex  6.169903e-02 -7.406825e-02  7.500000e-01
     vertex -1.844935e-02 -9.236159e-02  7.500000e-01
     vertex  4.650059e-02 -2.487935e-01  7.500000e-01
   endloop
 endfacet
 facet normal  0.000000e+00  0.000000e+00  1.000000e+00
   outer loop
     vertex  1.961586e-01 -1.623884e-01  7.500000e-01
     vertex  6.169903e-02 -7.406825e-02  7.500000e-01
     vertex  1.289474e-01 -2.187854e-01  7.500000e-01
   endloop
 endfacet
 facet normal  0.000000e+00  0.000000e+00  1.000000e+00
   outer loop
     vertex -1.236842e-01  2.187854e-01  7.500000e-01
     vertex -8.272337e-02  4.110478e-02  7.500000e-01
     vertex -1.844935e-02  9.236159e-02  7.500000e-01
   endloop
 endfacet
 facet normal  0.000000e+00  0.000000e+00  1.000000e+00
   outer loop
     vertex -1.236842e-01  2.187854e-01  7.500000e-01
     vertex -1.908954e-01  1.623884e-01  7.500000e-01
     vertex -8.272337e-02  4.110478e-02  7.500000e-01
   endloop
 endfacet
 facet normal  0.000000e+00  0.000000e+00  1.000000e+00
   outer loop
     vertex  2.400276e-01 -8.640509e-02  7.500000e-01
     vertex  9.736842e-02  0.000000e+00  7.500000e-01
     vertex  6.169903e-02 -7.406825e-02  7.500000e-01
   endloop
 endfacet
 facet normal  0.000000e+00  0.000000e+00  1.000000e+00
   outer loop
     vertex  2.400276e-01 -8.640509e-02  7.500000e-01
     vertex  6.169903e-02 -7.406825e-02  7.500000e-01
     vertex  1.961586e-01 -1.623884e-01  7.500000e-01
   endloop
 endfacet
 facet normal  0.000000e+00  0.000000e+00  1.000000e+00
   outer loop
     vertex -4.123743e-02  2.487935e-01  7.500000e-01
     vertex -1.236842e-01  2.187854e-01  7.500000e-01
     vertex -1.844935e-02  9.236159e-02  7.500000e-01
   endloop
 endfacet
 facet normal  0.000000e+00  0.000000e+00  1.000000e+00
   outer loop
     vertex  2.552632e-01  0.000000e+00  7.500000e-01
     vertex  9.736842e-02  0.000000e+00  7.500000e-01
     vertex  2.400276e-01 -8.640509e-02  7.500000e-01
   endloop
 endfacet
 facet normal  0.000000e+00  0.000000e+00  1.000000e+00
   outer loop
     vertex  4.650059e-02  2.487935e-01  7.500000e-01
     vertex -1.844935e-02  9.236159e-02  7.500000e-01
     vertex  6.169903e-02  7.406825e-02  7.500000e-01
   endloop
 endfacet
 facet normal  0.000000e+00  0.000000e+00  1.000000e+00
   outer loop
     vertex  4.650059e-02  2.487935e-01  7.500000e-01
     vertex -4.123743e-02  2.487935e-01  7.500000e-01
     vertex -1.844935e-02  9.236159e-02  7.500000e-01
   endloop
 endfacet
 facet normal  0.000000e+00  0.000000e+00  1.000000e+00
   outer loop
     vertex  2.400276e-01  8.640509e-02  7.500000e-01
     vertex  6.169903e-02  7.406825e-02  7.500000e-01
     vertex  9.736842e-02  0.000000e+00  7.500000e-01
   endloop
 endfacet
 facet normal  0.000000e+00  0.000000e+00  1.000000e+00
   outer loop
     vertex  2.400276e-01  8.640509e-02  7.500000e-01
     vertex  9.736842e-02  0.000000e+00  7.500000e-01
     vertex  2.552632e-01  0.000000e+00  7.500000e-01
   endloop
 endfacet
 facet normal  0.000000e+00  0.000000e+00  1.000000e+00
   outer loop
     vertex  1.289474e-01  2.187854e-01  7.500000e-01
     vertex  4.650059e-02  2.487935e-01  7.500000e-01
     vertex  6.169903e-02  7.406825e-02  7.500000e-01
   endloop
 endfacet
 facet normal  0.000000e+00  0.000000e+00  1.000000e+00
   outer loop
     vertex  1.961586e-01  1.623884e-01  7.500000e-01
     vertex  6.169903e-02  7.406825e-02  7.500000e-01
     vertex  2.400276e-01  8.640509e-02  7.500000e-01
   endloop
 endfacet
 facet normal  0.000000e+00  0.000000e+00  1.000000e+00
   outer loop
     vertex  1.961586e-01  1.623884e-01  7.500000e-01
     vertex  1.289474e-01  2.187854e-01  7.500000e-01
     vertex  6.169903e-02  7.406825e-02  7.500000e-01
   endloop
 endfacet
endsolid
