solid 
 facet normal -5.342427e-17  0.000000e+00 -1.000000e+00
   outer loop
     vertex  6.093750e-01  6.362423e-17 -1.484375e-01
     vertex -4.296875e-01 -1.406250e-01 -1.484375e-01
     vertex -4.296875e-01  0.000000e+00 -1.484375e-01
   endloop
 endfacet
 facet normal -5.342427e-17 -0.000000e+00 -1.000000e+00
   outer loop
     vertex  6.093750e-01  6.362423e-17 -1.484375e-01
     vertex  6.093750e-01 -1.406250e-01 -1.484375e-01
     vertex -4.296875e-01 -1.406250e-01 -1.484375e-01
   endloop
 endfacet
 facet normal  1.000000e+00  0.000000e+00  0.000000e+00
   outer loop
     vertex  6.093750e-01  7.835826e-17  9.218750e-02
     vertex  6.093750e-01 -1.406250e-01 -1.484375e-01
     vertex  6.093750e-01  6.362423e-17 -1.484375e-01
   endloop
 endfacet
 facet normal  1.000000e+00  0.000000e+00  0.000000e+00
   outer loop
     vertex  6.093750e-01  7.835826e-17  9.218750e-02
     vertex  6.093750e-01 -1.406250e-01  9.218750e-02
     vertex  6.093750e-01 -1.406250e-01 -1.484375e-01
   endloop
 endfacet
 facet normal -5.814824e-16  9.868649e-17  1.000000e+00
   outer loop
     vertex -2.498090e-01  1.354978e-17  9.218750e-02
     vertex  6.093750e-01 -1.406250e-01  9.218750e-02
     vertex  6.093750e-01  7.835826e-17  9.218750e-02
   endloop
 endfacet
 facet normal  0.000000e+00  4.046146e-15  1.000000e+00
   outer loop
     vertex -4.296875e-01 -1.406250e-01  9.218750e-02
     vertex -2.498090e-01  1.354978e-17  9.218750e-02
     vertex -2.809476e-01  1.164310e-17  9.218750e-02
   endloop
 endfacet
 facet normal  5.342427e-17  3.977809e-15  1.000000e+00
   outer loop
     vertex -4.296875e-01 -1.406250e-01  9.218750e-02
     vertex  6.093750e-01 -1.406250e-01  9.218750e-02
     vertex -2.498090e-01  1.354978e-17  9.218750e-02
   endloop
 endfacet
 facet normal  3.732095e-15  9.868649e-17  1.000000e+00
   outer loop
     vertex -4.296875e-01  1.473403e-17  9.218750e-02
     vertex -4.296875e-01 -1.406250e-01  9.218750e-02
     vertex -2.809476e-01  1.164310e-17  9.218750e-02
   endloop
 endfacet
 facet normal -1.000000e+00  0.000000e+00  0.000000e+00
   outer loop
     vertex -4.296875e-01  0.000000e+00 -1.484375e-01
     vertex -4.296875e-01 -1.406250e-01  9.218750e-02
     vertex -4.296875e-01  1.473403e-17  9.218750e-02
   endloop
 endfacet
 facet normal -1.000000e+00  0.000000e+00  0.000000e+00
   outer loop
     vertex -4.296875e-01  0.000000e+00 -1.484375e-01
     vertex -4.296875e-01 -1.406250e-01 -1.484375e-01
     vertex -4.296875e-01 -1.406250e-01  9.218750e-02
   endloop
 endfacet
 facet normal  9.783091e-17  1.000000e+00 -6.123234e-17
   outer loop
     vertex -2.763066e-01 -4.714012e-19  8.892056e-02
     vertex -4.296875e-01  0.000000e+00 -1.484375e-01
     vertex -4.296875e-01  1.473403e-17  9.218750e-02
   endloop
 endfacet
 facet normal  2.078081e-17  1.000000e+00 -3.678685e-15
   outer loop
     vertex -2.763066e-01 -4.714012e-19  8.892056e-02
     vertex -4.296875e-01  1.473403e-17  9.218750e-02
     vertex -2.809476e-01  1.164310e-17  9.218750e-02
   endloop
 endfacet
 facet normal -2.950470e-17  1.000000e+00  2.105198e-17
   outer loop
     vertex -2.710111e-01 -2.721744e-19  8.687870e-02
     vertex -4.296875e-01  0.000000e+00 -1.484375e-01
     vertex -2.763066e-01 -4.714012e-19  8.892056e-02
   endloop
 endfacet
 facet normal -4.943075e-17  1.000000e+00  3.448834e-17
   outer loop
     vertex -2.653783e-01  3.021333e-20  8.618421e-02
     vertex -4.296875e-01  0.000000e+00 -1.484375e-01
     vertex -2.710111e-01 -2.721744e-19  8.687870e-02
   endloop
 endfacet
 facet normal -7.526450e-17  1.000000e+00  5.258012e-17
   outer loop
     vertex -2.597454e-01  4.176510e-19  8.687870e-02
     vertex -4.296875e-01  0.000000e+00 -1.484375e-01
     vertex -2.653783e-01  3.021333e-20  8.618421e-02
   endloop
 endfacet
 facet normal -1.166378e-16  1.000000e+00  8.245930e-17
   outer loop
     vertex -2.544500e-01  8.669336e-19  8.892056e-02
     vertex -4.296875e-01  0.000000e+00 -1.484375e-01
     vertex -2.597454e-01  4.176510e-19  8.687870e-02
   endloop
 endfacet
 facet normal -5.684527e-15  1.000000e+00  4.193140e-15
   outer loop
     vertex -2.498090e-01  1.354978e-17  9.218750e-02
     vertex -4.296875e-01  0.000000e+00 -1.484375e-01
     vertex -2.544500e-01  8.669336e-19  8.892056e-02
   endloop
 endfacet
 facet normal -6.123234e-17  1.000000e+00 -1.053673e-17
   outer loop
     vertex  6.093750e-01  6.362423e-17 -1.484375e-01
     vertex -4.296875e-01  0.000000e+00 -1.484375e-01
     vertex -2.498090e-01  1.354978e-17  9.218750e-02
   endloop
 endfacet
 facet normal -7.543027e-17  1.000000e+00 -6.123234e-17
   outer loop
     vertex  6.093750e-01  7.835826e-17  9.218750e-02
     vertex  6.093750e-01  6.362423e-17 -1.484375e-01
     vertex -2.498090e-01  1.354978e-17  9.218750e-02
   endloop
 endfacet
 facet normal -6.123234e-17  1.000000e+00 -3.795191e-15
   outer loop
     vertex -2.498090e-01  1.354978e-17  9.218750e-02
     vertex -2.544500e-01  8.669336e-19  8.892056e-02
     vertex -2.809476e-01  1.164310e-17  9.218750e-02
   endloop
 endfacet
 facet normal  2.875960e-16  1.000000e+00 -9.659041e-16
   outer loop
     vertex -2.544500e-01  8.669336e-19  8.892056e-02
     vertex -2.597454e-01  4.176510e-19  8.687870e-02
     vertex -2.809476e-01  1.164310e-17  9.218750e-02
   endloop
 endfacet
 facet normal  1.285973e-16  1.000000e+00 -1.600908e-15
   outer loop
     vertex -2.597454e-01  4.176510e-19  8.687870e-02
     vertex -2.653783e-01  3.021333e-20  8.618421e-02
     vertex -2.809476e-01  1.164310e-17  9.218750e-02
   endloop
 endfacet
 facet normal -4.295221e-16  1.000000e+00 -3.048368e-15
   outer loop
     vertex -2.653783e-01  3.021333e-20  8.618421e-02
     vertex -2.710111e-01 -2.721744e-19  8.687870e-02
     vertex -2.809476e-01  1.164310e-17  9.218750e-02
   endloop
 endfacet
 facet normal -3.244813e-15  1.000000e+00 -8.317717e-15
   outer loop
     vertex -2.710111e-01 -2.721744e-19  8.687870e-02
     vertex -2.763066e-01 -4.714012e-19  8.892056e-02
     vertex -2.809476e-01  1.164310e-17  9.218750e-02
   endloop
 endfacet
 facet normal  5.342427e-17 -1.000000e+00  1.153478e-16
   outer loop
     vertex  6.093750e-01 -1.406250e-01  9.218750e-02
     vertex -4.296875e-01 -1.406250e-01 -1.484375e-01
     vertex  6.093750e-01 -1.406250e-01 -1.484375e-01
   endloop
 endfacet
 facet normal  5.342427e-17 -1.000000e+00  1.153478e-16
   outer loop
     vertex  6.093750e-01 -1.406250e-01  9.218750e-02
     vertex -4.296875e-01 -1.406250e-01  9.218750e-02
     vertex -4.296875e-01 -1.406250e-01 -1.484375e-01
   endloop
 endfacet
endsolid
