solid 
 facet normal -6.678033e-17 -9.868649e-17 -1.000000e+00
   outer loop
     vertex  7.500000e-01  6.362423e-17 -1.093750e-01
     vertex -2.890625e-01 -1.406250e-01 -1.093750e-01
     vertex -2.890625e-01  0.000000e+00 -1.093750e-01
   endloop
 endfacet
 facet normal -6.678033e-17 -9.868649e-17 -1.000000e+00
   outer loop
     vertex  7.500000e-01  6.362423e-17 -1.093750e-01
     vertex  7.500000e-01 -1.406250e-01 -1.093750e-01
     vertex -2.890625e-01 -1.406250e-01 -1.093750e-01
   endloop
 endfacet
 facet normal  1.000000e+00  0.000000e+00  0.000000e+00
   outer loop
     vertex  7.500000e-01  7.835826e-17  1.312500e-01
     vertex  7.500000e-01 -1.406250e-01 -1.093750e-01
     vertex  7.500000e-01  6.362423e-17 -1.093750e-01
   endloop
 endfacet
 facet normal  1.000000e+00  0.000000e+00  0.000000e+00
   outer loop
     vertex  7.500000e-01  7.835826e-17  1.312500e-01
     vertex  7.500000e-01 -1.406250e-01  1.312500e-01
     vertex  7.500000e-01 -1.406250e-01 -1.093750e-01
   endloop
 endfacet
 facet normal  5.342427e-17  0.000000e+00  1.000000e+00
   outer loop
     vertex -2.890625e-01  1.473403e-17  1.312500e-01
     vertex  7.500000e-01 -1.406250e-01  1.312500e-01
     vertex  7.500000e-01  7.835826e-17  1.312500e-01
   endloop
 endfacet
 facet normal  5.342427e-17  0.000000e+00  1.000000e+00
   outer loop
     vertex -2.890625e-01  1.473403e-17  1.312500e-01
     vertex -2.890625e-01 -1.406250e-01  1.312500e-01
     vertex  7.500000e-01 -1.406250e-01  1.312500e-01
   endloop
 endfacet
 facet normal -1.000000e+00  0.000000e+00  0.000000e+00
   outer loop
     vertex -2.890625e-01  0.000000e+00 -1.093750e-01
     vertex -2.890625e-01 -1.406250e-01  1.312500e-01
     vertex -2.890625e-01  1.473403e-17  1.312500e-01
   endloop
 endfacet
 facet normal -1.000000e+00  0.000000e+00  0.000000e+00
   outer loop
     vertex -2.890625e-01  0.000000e+00 -1.093750e-01
     vertex -2.890625e-01 -1.406250e-01 -1.093750e-01
     vertex -2.890625e-01 -1.406250e-01  1.312500e-01
   endloop
 endfacet
 facet normal -6.123234e-17  1.000000e+00 -6.123234e-17
   outer loop
     vertex  7.500000e-01  7.835826e-17  1.312500e-01
     vertex  7.500000e-01  6.362423e-17 -1.093750e-01
     vertex -2.890625e-01  0.000000e+00 -1.093750e-01
   endloop
 endfacet
 facet normal -6.123234e-17  1.000000e+00 -6.123234e-17
   outer loop
     vertex  7.500000e-01  7.835826e-17  1.312500e-01
     vertex -2.890625e-01  0.000000e+00 -1.093750e-01
     vertex -2.890625e-01  1.473403e-17  1.312500e-01
   endloop
 endfacet
 facet normal  5.342427e-17 -1.000000e+00  1.153478e-16
   outer loop
     vertex  7.500000e-01 -1.406250e-01  1.312500e-01
     vertex -2.890625e-01 -1.406250e-01 -1.093750e-01
     vertex  7.500000e-01 -1.406250e-01 -1.093750e-01
   endloop
 endfacet
 facet normal  5.342427e-17 -1.000000e+00  1.153478e-16
   outer loop
     vertex  7.500000e-01 -1.406250e-01  1.312500e-01
     vertex -2.890625e-01 -1.406250e-01  1.312500e-01
     vertex -2.890625e-01 -1.406250e-01 -1.093750e-01
   endloop
 endfacet
endsolid
